<svg width="98" height="28" viewBox="0 0 98 28" fill="none" xmlns="http://www.w3.org/2000/svg">
<g clip-path="url(#clip0_120_230)">
<rect x="-5" y="-40" width="108" height="108" rx="8" fill="white"/>
<path d="M28.1255 10.0858L32.8084 18.1512H29.6865L28.1255 15.4627L26.5662 18.1512H23.4427L28.1255 10.0858Z" fill="#132235"/>
<path d="M9 10.3255V12.3804H11.078V18.1502H13.5231V12.3804H15.6225V10.3255H9Z" fill="#132235"/>
<path d="M46.4675 14.0622C46.018 13.6774 45.3923 13.4302 44.6464 13.2435C44.4438 13.1928 44.2413 13.1289 44.0487 13.0454C43.8873 12.9767 43.7062 12.8997 43.6025 12.754C43.5382 12.6607 43.5432 12.546 43.5959 12.4511C43.6551 12.3381 43.7622 12.2874 43.884 12.2562C44.0125 12.2251 44.1886 12.2317 44.3204 12.2562C44.4669 12.2857 44.6102 12.3299 44.7501 12.3823C45.0728 12.5068 45.3758 12.6819 45.6623 12.8784L45.9027 13.0471L47.0602 11.3803L46.8445 11.2117C46.0591 10.5813 45.0844 10.2276 43.9631 10.2276H43.9565C43.1562 10.2276 42.4482 10.4601 41.9345 10.8957C41.4241 11.3263 41.1161 11.9583 41.1161 12.6918V12.7458C41.1161 13.5366 41.4076 14.0835 41.89 14.4584C42.3708 14.8301 43.0212 15.0413 43.7523 15.2197C43.9466 15.2656 44.1491 15.3098 44.3319 15.3999C44.5064 15.4834 44.7287 15.6405 44.7287 15.8616V15.8747C44.7254 15.9827 44.6892 16.0597 44.5789 16.1317C44.4669 16.2038 44.271 16.2643 43.9696 16.2643C43.4559 16.2643 42.8829 15.9631 42.2506 15.4522L42.0267 15.2656L40.7127 16.8325L40.9235 17.024C41.8538 17.8492 43.0377 18.2553 44.2084 18.2553C45.0416 18.2553 45.7792 18.0441 46.3193 17.6086C46.8594 17.1763 47.1739 16.5165 47.1739 15.724V15.6798C47.1755 14.9758 46.9153 14.4437 46.4675 14.0622Z" fill="#132235"/>
<path d="M37.6083 10.3287V13.8472L34.9145 10.3287H32.9995V18.15H35.443V14.489L38.2504 18.15H40.0534V10.3287H37.6083Z" fill="#132235"/>
<path d="M18.9341 12.3497H19.7442C20.0949 12.3596 20.3369 12.4283 20.4802 12.5429C20.6234 12.6575 20.7074 12.8311 20.7074 13.1094C20.6992 13.3436 20.6284 13.5106 20.4868 13.6317C20.3452 13.7545 20.1147 13.8348 19.7705 13.8413H18.9341V12.3497ZM23.2645 18.1507L21.8666 15.3165C22.4478 14.9907 22.8924 14.4586 23.062 13.8004C23.1246 13.5581 23.1526 13.2961 23.1526 13.0472V13.003C23.1526 12.2613 22.9089 11.6113 22.4429 11.1496C21.8962 10.6027 21.0911 10.326 20.1114 10.326H16.4889V18.1507H18.9341V15.8339H19.2782C19.3276 15.8339 19.377 15.8323 19.4264 15.8306L20.5494 18.1507H23.2645Z" fill="#132235"/>
<path d="M54.1333 15.697L52.5625 18.4379L47.8297 10.2404C50.9105 10.213 50.9097 10.201 51.7934 11.6515L54.1333 15.697Z" fill="url(#paint0_linear_120_230)"/>
<path d="M56.2768 10.2338C54.201 10.2329 54.105 10.3823 53.3317 11.6515L52.5426 13.016H55.693L57.2955 10.2405C56.9104 10.2371 56.5734 10.2339 56.2768 10.2338Z" fill="#1E6DEE"/>
<path d="M60.0151 10.2639L57.9773 10.2638V18.2211L60.0151 18.2212V10.2639Z" fill="#1E6DEE"/>
<path d="M66.6678 10.7082C65.979 10.3065 65.0229 10.0528 64.2416 10.0528C62.6893 10.0528 61.5687 11.1099 61.5687 12.7274C61.5687 14.2709 62.4014 14.6091 63.6659 14.9792C64.0977 15.106 64.8893 15.3069 64.8893 15.8883C64.8893 16.4486 64.3855 16.6918 63.9126 16.6918C63.2239 16.6918 62.6276 16.3217 62.1239 15.8672L61.2603 17.5375C62.0519 18.1084 63.008 18.4466 63.9846 18.4466C64.7659 18.4466 65.578 18.2246 66.1846 17.6961C66.8014 17.1569 66.9865 16.3429 66.9865 15.55C66.9865 14.2603 66.1537 13.7 65.0743 13.3723L64.5603 13.2137C64.2108 13.0974 63.6659 12.9177 63.6659 12.4525C63.6659 12.0085 64.1594 11.7865 64.5295 11.7865C65.0229 11.7865 65.4958 11.9979 65.8659 12.3151L66.6678 10.7082Z" fill="#1E6DEE"/>
<path d="M75.7553 10C73.5462 10 71.5101 11.6701 71.5101 14.0501C71.5101 16.597 73.2917 18.3924 75.7553 18.3924C78.2189 18.3924 80.0005 16.597 80.0005 14.0501C80.0005 11.6701 77.9644 10 75.7553 10ZM75.7553 11.9833C76.9464 11.9833 77.9237 12.9749 77.9237 14.0605C77.9237 15.4175 76.9464 16.4091 75.7553 16.4091C74.5642 16.4091 73.5869 15.4175 73.5869 14.0605C73.5869 12.9749 74.5642 11.9833 75.7553 11.9833Z" fill="#1E6DEE"/>
<path d="M81.2991 18.2136H83.3036V13.3425H83.3241L86.9955 18.2136H89V10.2638H86.9955V15.1243H86.9751L83.3036 10.2638H81.2991L81.2991 18.2136Z" fill="#1E6DEE"/>
<path d="M70.237 10.2639L68.1993 10.2638V18.2211L70.237 18.2212V10.2639Z" fill="#1E6DEE"/>
</g>
<rect x="1" y="1" width="96" height="26" rx="9" stroke="black" stroke-opacity="0.1" stroke-width="2"/>
<defs>
<linearGradient id="paint0_linear_120_230" x1="36.6643" y1="9.7432" x2="36.7998" y2="15.3428" gradientUnits="userSpaceOnUse">
<stop stop-color="#D60992"/>
<stop offset="1" stop-color="#1E6DEE"/>
</linearGradient>
<clipPath id="clip0_120_230">
<rect x="2" y="2" width="94" height="24" rx="8" fill="white"/>
</clipPath>
</defs>
</svg>
