<svg width="182" height="95" viewBox="0 0 182 95" fill="none" xmlns="http://www.w3.org/2000/svg">
<path d="M68.2879 59L59.1379 47.99L68.0479 37.91H73.1479L63.2179 48.86V46.97L73.4779 59H68.2879ZM55.5379 59V37.91H59.6179V59H55.5379ZM73.7507 53.12V49.55H84.1307V53.12H73.7507ZM88.0282 59V37.91H92.1082V59H88.0282ZM91.0282 59V55.37H101.768V59H91.0282ZM110.827 59.3C109.307 59.3 107.957 58.98 106.777 58.34C105.597 57.68 104.657 56.78 103.957 55.64C103.277 54.5 102.937 53.2 102.937 51.74C102.937 50.3 103.267 49.02 103.927 47.9C104.607 46.76 105.527 45.86 106.687 45.2C107.847 44.52 109.137 44.18 110.557 44.18C111.957 44.18 113.187 44.5 114.247 45.14C115.327 45.76 116.167 46.62 116.767 47.72C117.387 48.8 117.697 50.03 117.697 51.41C117.697 51.67 117.677 51.94 117.637 52.22C117.617 52.48 117.567 52.78 117.487 53.12L105.307 53.15V50.21L115.657 50.18L114.067 51.41C114.027 50.55 113.867 49.83 113.587 49.25C113.327 48.67 112.937 48.23 112.417 47.93C111.917 47.61 111.297 47.45 110.557 47.45C109.777 47.45 109.097 47.63 108.517 47.99C107.937 48.33 107.487 48.82 107.167 49.46C106.867 50.08 106.717 50.82 106.717 51.68C106.717 52.56 106.877 53.33 107.197 53.99C107.537 54.63 108.017 55.13 108.637 55.49C109.257 55.83 109.977 56 110.797 56C111.537 56 112.207 55.88 112.807 55.64C113.407 55.38 113.927 55 114.367 54.5L116.677 56.81C115.977 57.63 115.117 58.25 114.097 58.67C113.097 59.09 112.007 59.3 110.827 59.3ZM126.188 59.3C124.868 59.3 123.678 58.97 122.618 58.31C121.558 57.65 120.728 56.75 120.128 55.61C119.528 54.47 119.228 53.19 119.228 51.77C119.228 50.33 119.528 49.04 120.128 47.9C120.728 46.76 121.558 45.86 122.618 45.2C123.678 44.54 124.868 44.21 126.188 44.21C127.228 44.21 128.158 44.42 128.978 44.84C129.798 45.26 130.448 45.85 130.928 46.61C131.428 47.35 131.698 48.19 131.738 49.13V54.35C131.698 55.31 131.428 56.16 130.928 56.9C130.448 57.64 129.798 58.23 128.978 58.67C128.158 59.09 127.228 59.3 126.188 59.3ZM126.908 55.67C128.008 55.67 128.898 55.31 129.578 54.59C130.258 53.85 130.598 52.9 130.598 51.74C130.598 50.98 130.438 50.31 130.118 49.73C129.818 49.13 129.388 48.67 128.828 48.35C128.288 48.01 127.648 47.84 126.908 47.84C126.188 47.84 125.548 48.01 124.988 48.35C124.448 48.67 124.018 49.13 123.698 49.73C123.398 50.31 123.248 50.98 123.248 51.74C123.248 52.52 123.398 53.21 123.698 53.81C124.018 54.39 124.448 54.85 124.988 55.19C125.548 55.51 126.188 55.67 126.908 55.67ZM130.388 59V55.1L131.018 51.56L130.388 48.08V44.51H134.288V59H130.388ZM137.764 59V44.51H141.694V59H137.764ZM141.694 50.99L140.164 49.97C140.344 48.19 140.864 46.79 141.724 45.77C142.584 44.73 143.824 44.21 145.444 44.21C146.144 44.21 146.774 44.33 147.334 44.57C147.894 44.79 148.404 45.16 148.864 45.68L146.404 48.5C146.184 48.26 145.914 48.08 145.594 47.96C145.294 47.84 144.944 47.78 144.544 47.78C143.704 47.78 143.014 48.05 142.474 48.59C141.954 49.11 141.694 49.91 141.694 50.99ZM159.936 59V50.69C159.936 49.83 159.666 49.13 159.126 48.59C158.586 48.05 157.886 47.78 157.026 47.78C156.466 47.78 155.966 47.9 155.526 48.14C155.086 48.38 154.736 48.72 154.476 49.16C154.236 49.6 154.116 50.11 154.116 50.69L152.586 49.91C152.586 48.77 152.826 47.78 153.306 46.94C153.806 46.08 154.486 45.41 155.346 44.93C156.226 44.45 157.216 44.21 158.316 44.21C159.376 44.21 160.326 44.48 161.166 45.02C162.006 45.54 162.666 46.23 163.146 47.09C163.626 47.93 163.866 48.84 163.866 49.82V59H159.936ZM150.186 59V44.51H154.116V59H150.186ZM172.012 59.33C171.192 59.33 170.382 59.22 169.582 59C168.802 58.78 168.082 58.48 167.422 58.1C166.762 57.7 166.192 57.22 165.712 56.66L168.052 54.29C168.552 54.85 169.132 55.27 169.792 55.55C170.452 55.83 171.182 55.97 171.982 55.97C172.622 55.97 173.102 55.88 173.422 55.7C173.762 55.52 173.932 55.25 173.932 54.89C173.932 54.49 173.752 54.18 173.392 53.96C173.052 53.74 172.602 53.56 172.042 53.42C171.482 53.26 170.892 53.09 170.272 52.91C169.672 52.71 169.092 52.46 168.532 52.16C167.972 51.84 167.512 51.41 167.152 50.87C166.812 50.31 166.642 49.59 166.642 48.71C166.642 47.79 166.862 46.99 167.302 46.31C167.762 45.63 168.412 45.1 169.252 44.72C170.092 44.34 171.082 44.15 172.222 44.15C173.422 44.15 174.502 44.36 175.462 44.78C176.442 45.2 177.252 45.83 177.892 46.67L175.522 49.04C175.082 48.5 174.582 48.11 174.022 47.87C173.482 47.63 172.892 47.51 172.252 47.51C171.672 47.51 171.222 47.6 170.902 47.78C170.602 47.96 170.452 48.21 170.452 48.53C170.452 48.89 170.622 49.17 170.962 49.37C171.322 49.57 171.782 49.75 172.342 49.91C172.902 50.05 173.482 50.22 174.082 50.42C174.702 50.6 175.282 50.86 175.822 51.2C176.382 51.54 176.832 51.99 177.172 52.55C177.532 53.11 177.712 53.83 177.712 54.71C177.712 56.13 177.202 57.26 176.182 58.1C175.162 58.92 173.772 59.33 172.012 59.33Z" fill="black"/>
<rect x="8" y="31" width="34" height="42" rx="10" fill="#0206FB"/>
<rect x="8" y="31" width="34" height="42" rx="10" fill="#A7D918"/>
<rect y="22" width="34" height="42" rx="10" fill="#0206FB"/>
<rect y="22" width="34" height="42" rx="10" fill="#0206FB"/>
</svg>
