<svg width="409" height="280" viewBox="0 0 409 280" fill="none" xmlns="http://www.w3.org/2000/svg">
<rect width="273" height="102" rx="35" transform="matrix(-1 0 0 1 273 89)" fill="#FFD058"/>
<path d="M40.16 115.32L34.64 125.952V132H31.904V125.952L26.36 115.32H29.408L33.272 123.504L37.136 115.32H40.16ZM54.3073 118.776V132H51.5713V130.44C51.1393 130.984 50.5713 131.416 49.8673 131.736C49.1793 132.04 48.4433 132.192 47.6593 132.192C46.6193 132.192 45.6833 131.976 44.8513 131.544C44.0353 131.112 43.3873 130.472 42.9073 129.624C42.4433 128.776 42.2113 127.752 42.2113 126.552V118.776H44.9233V126.144C44.9233 127.328 45.2193 128.24 45.8113 128.88C46.4033 129.504 47.2113 129.816 48.2353 129.816C49.2593 129.816 50.0673 129.504 50.6593 128.88C51.2673 128.24 51.5713 127.328 51.5713 126.144V118.776H54.3073ZM63.1492 125.4L69.2452 132H65.5492L60.6532 126.312V132H57.9172V114.24H60.6532V124.56L65.4532 118.776H69.2452L63.1492 125.4ZM82.7686 118.56C83.7926 118.56 84.6966 118.768 85.4806 119.184C86.2806 119.584 86.9046 120.088 87.3526 120.696V118.776H90.1126V132.216C90.1126 133.432 89.8566 134.512 89.3446 135.456C88.8326 136.416 88.0886 137.168 87.1126 137.712C86.1526 138.256 85.0006 138.528 83.6566 138.528C81.8646 138.528 80.3766 138.104 79.1926 137.256C78.0086 136.424 77.3366 135.288 77.1766 133.848H79.8886C80.0966 134.536 80.5366 135.088 81.2086 135.504C81.8966 135.936 82.7126 136.152 83.6566 136.152C84.7606 136.152 85.6486 135.816 86.3206 135.144C87.0086 134.472 87.3526 133.496 87.3526 132.216V130.008C86.8886 130.632 86.2566 131.16 85.4566 131.592C84.6726 132.008 83.7766 132.216 82.7686 132.216C81.6166 132.216 80.5606 131.928 79.6006 131.352C78.6566 130.76 77.9046 129.944 77.3446 128.904C76.8006 127.848 76.5286 126.656 76.5286 125.328C76.5286 124 76.8006 122.824 77.3446 121.8C77.9046 120.776 78.6566 119.984 79.6006 119.424C80.5606 118.848 81.6166 118.56 82.7686 118.56ZM87.3526 125.376C87.3526 124.464 87.1606 123.672 86.7766 123C86.4086 122.328 85.9206 121.816 85.3126 121.464C84.7046 121.112 84.0486 120.936 83.3446 120.936C82.6406 120.936 81.9846 121.112 81.3766 121.464C80.7686 121.8 80.2726 122.304 79.8886 122.976C79.5206 123.632 79.3366 124.416 79.3366 125.328C79.3366 126.24 79.5206 127.04 79.8886 127.728C80.2726 128.416 80.7686 128.944 81.3766 129.312C82.0006 129.664 82.6566 129.84 83.3446 129.84C84.0486 129.84 84.7046 129.664 85.3126 129.312C85.9206 128.96 86.4086 128.448 86.7766 127.776C87.1606 127.088 87.3526 126.288 87.3526 125.376ZM92.7943 125.328C92.7943 124 93.0663 122.824 93.6103 121.8C94.1703 120.776 94.9223 119.984 95.8663 119.424C96.8263 118.848 97.8823 118.56 99.0343 118.56C100.074 118.56 100.978 118.768 101.746 119.184C102.53 119.584 103.154 120.088 103.618 120.696V118.776H106.378V132H103.618V130.032C103.154 130.656 102.522 131.176 101.722 131.592C100.922 132.008 100.01 132.216 98.9863 132.216C97.8503 132.216 96.8103 131.928 95.8663 131.352C94.9223 130.76 94.1703 129.944 93.6103 128.904C93.0663 127.848 92.7943 126.656 92.7943 125.328ZM103.618 125.376C103.618 124.464 103.426 123.672 103.042 123C102.674 122.328 102.186 121.816 101.578 121.464C100.97 121.112 100.314 120.936 99.6103 120.936C98.9063 120.936 98.2503 121.112 97.6423 121.464C97.0343 121.8 96.5383 122.304 96.1543 122.976C95.7863 123.632 95.6023 124.416 95.6023 125.328C95.6023 126.24 95.7863 127.04 96.1543 127.728C96.5383 128.416 97.0343 128.944 97.6423 129.312C98.2663 129.664 98.9223 129.84 99.6103 129.84C100.314 129.84 100.97 129.664 101.578 129.312C102.186 128.96 102.674 128.448 103.042 127.776C103.426 127.088 103.618 126.288 103.618 125.376ZM112.708 120.744C113.172 120.104 113.804 119.584 114.604 119.184C115.42 118.768 116.324 118.56 117.316 118.56C118.484 118.56 119.54 118.84 120.484 119.4C121.428 119.96 122.172 120.76 122.716 121.8C123.26 122.824 123.532 124 123.532 125.328C123.532 126.656 123.26 127.848 122.716 128.904C122.172 129.944 121.42 130.76 120.46 131.352C119.516 131.928 118.468 132.216 117.316 132.216C116.292 132.216 115.38 132.016 114.58 131.616C113.796 131.216 113.172 130.704 112.708 130.08V132H109.972V114.24H112.708V120.744ZM120.748 125.328C120.748 124.416 120.556 123.632 120.172 122.976C119.804 122.304 119.308 121.8 118.684 121.464C118.076 121.112 117.42 120.936 116.716 120.936C116.028 120.936 115.372 121.112 114.748 121.464C114.14 121.816 113.644 122.328 113.26 123C112.892 123.672 112.708 124.464 112.708 125.376C112.708 126.288 112.892 127.088 113.26 127.776C113.644 128.448 114.14 128.96 114.748 129.312C115.372 129.664 116.028 129.84 116.716 129.84C117.42 129.84 118.076 129.664 118.684 129.312C119.308 128.944 119.804 128.416 120.172 127.728C120.556 127.04 120.748 126.24 120.748 125.328ZM138.214 118.776V132H135.478V130.44C135.046 130.984 134.478 131.416 133.774 131.736C133.086 132.04 132.35 132.192 131.566 132.192C130.526 132.192 129.59 131.976 128.758 131.544C127.942 131.112 127.294 130.472 126.814 129.624C126.35 128.776 126.118 127.752 126.118 126.552V118.776H128.83V126.144C128.83 127.328 129.126 128.24 129.718 128.88C130.31 129.504 131.118 129.816 132.142 129.816C133.166 129.816 133.974 129.504 134.566 128.88C135.174 128.24 135.478 127.328 135.478 126.144V118.776H138.214ZM148.495 118.56C149.535 118.56 150.463 118.776 151.279 119.208C152.111 119.64 152.759 120.28 153.223 121.128C153.687 121.976 153.919 123 153.919 124.2V132H151.207V124.608C151.207 123.424 150.911 122.52 150.319 121.896C149.727 121.256 148.919 120.936 147.895 120.936C146.871 120.936 146.055 121.256 145.447 121.896C144.855 122.52 144.559 123.424 144.559 124.608V132H141.823V118.776H144.559V120.288C145.007 119.744 145.575 119.32 146.263 119.016C146.967 118.712 147.711 118.56 148.495 118.56ZM162.737 118.56C163.761 118.56 164.665 118.768 165.449 119.184C166.249 119.584 166.873 120.088 167.321 120.696V118.776H170.081V132.216C170.081 133.432 169.825 134.512 169.313 135.456C168.801 136.416 168.057 137.168 167.081 137.712C166.121 138.256 164.969 138.528 163.625 138.528C161.833 138.528 160.345 138.104 159.161 137.256C157.977 136.424 157.305 135.288 157.145 133.848H159.857C160.065 134.536 160.505 135.088 161.177 135.504C161.865 135.936 162.681 136.152 163.625 136.152C164.729 136.152 165.617 135.816 166.289 135.144C166.977 134.472 167.321 133.496 167.321 132.216V130.008C166.857 130.632 166.225 131.16 165.425 131.592C164.641 132.008 163.745 132.216 162.737 132.216C161.585 132.216 160.529 131.928 159.569 131.352C158.625 130.76 157.873 129.944 157.313 128.904C156.769 127.848 156.497 126.656 156.497 125.328C156.497 124 156.769 122.824 157.313 121.8C157.873 120.776 158.625 119.984 159.569 119.424C160.529 118.848 161.585 118.56 162.737 118.56ZM167.321 125.376C167.321 124.464 167.129 123.672 166.745 123C166.377 122.328 165.889 121.816 165.281 121.464C164.673 121.112 164.017 120.936 163.313 120.936C162.609 120.936 161.953 121.112 161.345 121.464C160.737 121.8 160.241 122.304 159.857 122.976C159.489 123.632 159.305 124.416 159.305 125.328C159.305 126.24 159.489 127.04 159.857 127.728C160.241 128.416 160.737 128.944 161.345 129.312C161.969 129.664 162.625 129.84 163.313 129.84C164.017 129.84 164.673 129.664 165.281 129.312C165.889 128.96 166.377 128.448 166.745 127.776C167.129 127.088 167.321 126.288 167.321 125.376ZM32.6 162.216C31.56 162.216 30.624 162.032 29.792 161.664C28.976 161.28 28.328 160.768 27.848 160.128C27.368 159.472 27.112 158.744 27.08 157.944H29.912C29.96 158.504 30.224 158.976 30.704 159.36C31.2 159.728 31.816 159.912 32.552 159.912C33.32 159.912 33.912 159.768 34.328 159.48C34.76 159.176 34.976 158.792 34.976 158.328C34.976 157.832 34.736 157.464 34.256 157.224C33.792 156.984 33.048 156.72 32.024 156.432C31.032 156.16 30.224 155.896 29.6 155.64C28.976 155.384 28.432 154.992 27.968 154.464C27.52 153.936 27.296 153.24 27.296 152.376C27.296 151.672 27.504 151.032 27.92 150.456C28.336 149.864 28.928 149.4 29.696 149.064C30.48 148.728 31.376 148.56 32.384 148.56C33.888 148.56 35.096 148.944 36.008 149.712C36.936 150.464 37.432 151.496 37.496 152.808H34.76C34.712 152.216 34.472 151.744 34.04 151.392C33.608 151.04 33.024 150.864 32.288 150.864C31.568 150.864 31.016 151 30.632 151.272C30.248 151.544 30.056 151.904 30.056 152.352C30.056 152.704 30.184 153 30.44 153.24C30.696 153.48 31.008 153.672 31.376 153.816C31.744 153.944 32.288 154.112 33.008 154.32C33.968 154.576 34.752 154.84 35.36 155.112C35.984 155.368 36.52 155.752 36.968 156.264C37.416 156.776 37.648 157.456 37.664 158.304C37.664 159.056 37.456 159.728 37.04 160.32C36.624 160.912 36.032 161.376 35.264 161.712C34.512 162.048 33.624 162.216 32.6 162.216ZM52.7403 155.064C52.7403 155.56 52.7083 156.008 52.6443 156.408H42.5403C42.6203 157.464 43.0123 158.312 43.7163 158.952C44.4203 159.592 45.2843 159.912 46.3083 159.912C47.7803 159.912 48.8203 159.296 49.4283 158.064H52.3803C51.9803 159.28 51.2523 160.28 50.1963 161.064C49.1563 161.832 47.8603 162.216 46.3083 162.216C45.0443 162.216 43.9083 161.936 42.9003 161.376C41.9083 160.8 41.1243 160 40.5483 158.976C39.9883 157.936 39.7083 156.736 39.7083 155.376C39.7083 154.016 39.9803 152.824 40.5243 151.8C41.0843 150.76 41.8603 149.96 42.8523 149.4C43.8603 148.84 45.0123 148.56 46.3083 148.56C47.5563 148.56 48.6683 148.832 49.6443 149.376C50.6203 149.92 51.3803 150.688 51.9243 151.68C52.4683 152.656 52.7403 153.784 52.7403 155.064ZM49.8843 154.2C49.8683 153.192 49.5083 152.384 48.8043 151.776C48.1003 151.168 47.2283 150.864 46.1883 150.864C45.2443 150.864 44.4363 151.168 43.7643 151.776C43.0923 152.368 42.6923 153.176 42.5643 154.2H49.8843ZM60.6648 155.4L66.7608 162H63.0648L58.1688 156.312V162H55.4328V144.24H58.1688V154.56L62.9688 148.776H66.7608L60.6648 155.4ZM67.8099 155.328C67.8099 154 68.0819 152.824 68.6259 151.8C69.1859 150.776 69.9379 149.984 70.8819 149.424C71.8419 148.848 72.8979 148.56 74.0499 148.56C75.0899 148.56 75.9939 148.768 76.7619 149.184C77.5459 149.584 78.1699 150.088 78.6339 150.696V148.776H81.3939V162H78.6339V160.032C78.1699 160.656 77.5379 161.176 76.7379 161.592C75.9379 162.008 75.0259 162.216 74.0019 162.216C72.8659 162.216 71.8259 161.928 70.8819 161.352C69.9379 160.76 69.1859 159.944 68.6259 158.904C68.0819 157.848 67.8099 156.656 67.8099 155.328ZM78.6339 155.376C78.6339 154.464 78.4419 153.672 78.0579 153C77.6899 152.328 77.2019 151.816 76.5939 151.464C75.9859 151.112 75.3299 150.936 74.6259 150.936C73.9219 150.936 73.2659 151.112 72.6579 151.464C72.0499 151.8 71.5539 152.304 71.1699 152.976C70.8019 153.632 70.6179 154.416 70.6179 155.328C70.6179 156.24 70.8019 157.04 71.1699 157.728C71.5539 158.416 72.0499 158.944 72.6579 159.312C73.2819 159.664 73.9379 159.84 74.6259 159.84C75.3299 159.84 75.9859 159.664 76.5939 159.312C77.2019 158.96 77.6899 158.448 78.0579 157.776C78.4419 157.088 78.6339 156.288 78.6339 155.376ZM87.7235 150.696C88.1235 150.024 88.6515 149.504 89.3075 149.136C89.9795 148.752 90.7715 148.56 91.6835 148.56V151.392H90.9875C89.9155 151.392 89.0995 151.664 88.5395 152.208C87.9955 152.752 87.7235 153.696 87.7235 155.04V162H84.9875V148.776H87.7235V150.696ZM93.2864 155.328C93.2864 154 93.5584 152.824 94.1024 151.8C94.6624 150.776 95.4144 149.984 96.3584 149.424C97.3184 148.848 98.3744 148.56 99.5264 148.56C100.566 148.56 101.47 148.768 102.238 149.184C103.022 149.584 103.646 150.088 104.11 150.696V148.776H106.87V162H104.11V160.032C103.646 160.656 103.014 161.176 102.214 161.592C101.414 162.008 100.502 162.216 99.4784 162.216C98.3424 162.216 97.3024 161.928 96.3584 161.352C95.4144 160.76 94.6624 159.944 94.1024 158.904C93.5584 157.848 93.2864 156.656 93.2864 155.328ZM104.11 155.376C104.11 154.464 103.918 153.672 103.534 153C103.166 152.328 102.678 151.816 102.07 151.464C101.462 151.112 100.806 150.936 100.102 150.936C99.3984 150.936 98.7424 151.112 98.1344 151.464C97.5264 151.8 97.0304 152.304 96.6464 152.976C96.2784 153.632 96.0944 154.416 96.0944 155.328C96.0944 156.24 96.2784 157.04 96.6464 157.728C97.0304 158.416 97.5264 158.944 98.1344 159.312C98.7584 159.664 99.4144 159.84 100.102 159.84C100.806 159.84 101.462 159.664 102.07 159.312C102.678 158.96 103.166 158.448 103.534 157.776C103.918 157.088 104.11 156.288 104.11 155.376ZM117.136 148.56C118.176 148.56 119.104 148.776 119.92 149.208C120.752 149.64 121.4 150.28 121.864 151.128C122.328 151.976 122.56 153 122.56 154.2V162H119.848V154.608C119.848 153.424 119.552 152.52 118.96 151.896C118.368 151.256 117.56 150.936 116.536 150.936C115.512 150.936 114.696 151.256 114.088 151.896C113.496 152.52 113.2 153.424 113.2 154.608V162H110.464V148.776H113.2V150.288C113.648 149.744 114.216 149.32 114.904 149.016C115.608 148.712 116.352 148.56 117.136 148.56ZM131.378 148.56C132.402 148.56 133.306 148.768 134.09 149.184C134.89 149.584 135.514 150.088 135.962 150.696V148.776H138.722V162.216C138.722 163.432 138.466 164.512 137.954 165.456C137.442 166.416 136.698 167.168 135.722 167.712C134.762 168.256 133.61 168.528 132.266 168.528C130.474 168.528 128.986 168.104 127.802 167.256C126.618 166.424 125.946 165.288 125.786 163.848H128.498C128.706 164.536 129.146 165.088 129.818 165.504C130.506 165.936 131.322 166.152 132.266 166.152C133.37 166.152 134.258 165.816 134.93 165.144C135.618 164.472 135.962 163.496 135.962 162.216V160.008C135.498 160.632 134.866 161.16 134.066 161.592C133.282 162.008 132.386 162.216 131.378 162.216C130.226 162.216 129.17 161.928 128.21 161.352C127.266 160.76 126.514 159.944 125.954 158.904C125.41 157.848 125.138 156.656 125.138 155.328C125.138 154 125.41 152.824 125.954 151.8C126.514 150.776 127.266 149.984 128.21 149.424C129.17 148.848 130.226 148.56 131.378 148.56ZM135.962 155.376C135.962 154.464 135.77 153.672 135.386 153C135.018 152.328 134.53 151.816 133.922 151.464C133.314 151.112 132.658 150.936 131.954 150.936C131.25 150.936 130.594 151.112 129.986 151.464C129.378 151.8 128.882 152.304 128.498 152.976C128.13 153.632 127.946 154.416 127.946 155.328C127.946 156.24 128.13 157.04 128.498 157.728C128.882 158.416 129.378 158.944 129.986 159.312C130.61 159.664 131.266 159.84 131.954 159.84C132.658 159.84 133.314 159.664 133.922 159.312C134.53 158.96 135.018 158.448 135.386 157.776C135.77 157.088 135.962 156.288 135.962 155.376ZM149.942 147.024C149.446 147.024 149.03 146.856 148.694 146.52C148.358 146.184 148.19 145.768 148.19 145.272C148.19 144.776 148.358 144.36 148.694 144.024C149.03 143.688 149.446 143.52 149.942 143.52C150.422 143.52 150.83 143.688 151.166 144.024C151.502 144.36 151.67 144.776 151.67 145.272C151.67 145.768 151.502 146.184 151.166 146.52C150.83 146.856 150.422 147.024 149.942 147.024ZM151.286 164.592C151.286 165.888 150.958 166.824 150.302 167.4C149.662 167.992 148.726 168.288 147.494 168.288H146.078V165.984H147.014C147.574 165.984 147.966 165.872 148.19 165.648C148.43 165.44 148.55 165.088 148.55 164.592V148.776H151.286V164.592ZM166.854 148.776V162H164.118V160.44C163.686 160.984 163.118 161.416 162.414 161.736C161.726 162.04 160.99 162.192 160.206 162.192C159.166 162.192 158.23 161.976 157.398 161.544C156.582 161.112 155.934 160.472 155.454 159.624C154.99 158.776 154.758 157.752 154.758 156.552V148.776H157.47V156.144C157.47 157.328 157.766 158.24 158.358 158.88C158.95 159.504 159.758 159.816 160.782 159.816C161.806 159.816 162.614 159.504 163.206 158.88C163.814 158.24 164.118 157.328 164.118 156.144V148.776H166.854ZM175.792 148.56C176.816 148.56 177.72 148.768 178.504 149.184C179.304 149.584 179.928 150.088 180.376 150.696V148.776H183.136V162.216C183.136 163.432 182.88 164.512 182.368 165.456C181.856 166.416 181.112 167.168 180.136 167.712C179.176 168.256 178.024 168.528 176.68 168.528C174.888 168.528 173.4 168.104 172.216 167.256C171.032 166.424 170.36 165.288 170.2 163.848H172.912C173.12 164.536 173.56 165.088 174.232 165.504C174.92 165.936 175.736 166.152 176.68 166.152C177.784 166.152 178.672 165.816 179.344 165.144C180.032 164.472 180.376 163.496 180.376 162.216V160.008C179.912 160.632 179.28 161.16 178.48 161.592C177.696 162.008 176.8 162.216 175.792 162.216C174.64 162.216 173.584 161.928 172.624 161.352C171.68 160.76 170.928 159.944 170.368 158.904C169.824 157.848 169.552 156.656 169.552 155.328C169.552 154 169.824 152.824 170.368 151.8C170.928 150.776 171.68 149.984 172.624 149.424C173.584 148.848 174.64 148.56 175.792 148.56ZM180.376 155.376C180.376 154.464 180.184 153.672 179.8 153C179.432 152.328 178.944 151.816 178.336 151.464C177.728 151.112 177.072 150.936 176.368 150.936C175.664 150.936 175.008 151.112 174.4 151.464C173.792 151.8 173.296 152.304 172.912 152.976C172.544 153.632 172.36 154.416 172.36 155.328C172.36 156.24 172.544 157.04 172.912 157.728C173.296 158.416 173.792 158.944 174.4 159.312C175.024 159.664 175.68 159.84 176.368 159.84C177.072 159.84 177.728 159.664 178.336 159.312C178.944 158.96 179.432 158.448 179.8 157.776C180.184 157.088 180.376 156.288 180.376 155.376ZM185.818 155.328C185.818 154 186.09 152.824 186.634 151.8C187.194 150.776 187.946 149.984 188.89 149.424C189.85 148.848 190.906 148.56 192.058 148.56C193.098 148.56 194.002 148.768 194.77 149.184C195.554 149.584 196.178 150.088 196.642 150.696V148.776H199.402V162H196.642V160.032C196.178 160.656 195.546 161.176 194.746 161.592C193.946 162.008 193.034 162.216 192.01 162.216C190.874 162.216 189.834 161.928 188.89 161.352C187.946 160.76 187.194 159.944 186.634 158.904C186.09 157.848 185.818 156.656 185.818 155.328ZM196.642 155.376C196.642 154.464 196.45 153.672 196.066 153C195.698 152.328 195.21 151.816 194.602 151.464C193.994 151.112 193.338 150.936 192.634 150.936C191.93 150.936 191.274 151.112 190.666 151.464C190.058 151.8 189.562 152.304 189.178 152.976C188.81 153.632 188.626 154.416 188.626 155.328C188.626 156.24 188.81 157.04 189.178 157.728C189.562 158.416 190.058 158.944 190.666 159.312C191.29 159.664 191.946 159.84 192.634 159.84C193.338 159.84 193.994 159.664 194.602 159.312C195.21 158.96 195.698 158.448 196.066 157.776C196.45 157.088 196.642 156.288 196.642 155.376Z" fill="black"/>
<path d="M347.565 109.59L352.806 142.551C356.548 166.087 343.327 189.036 321.089 197.604L289.945 209.604C259.964 221.155 226.96 202.142 221.915 170.41L216.674 137.449C212.932 113.913 226.153 90.9642 248.391 82.3959L279.535 70.3963C309.516 58.8445 342.52 77.8584 347.565 109.59Z" fill="#FFD058" stroke="white" stroke-width="5"/>
<g clip-path="url(#clip0_274_188)">
<path d="M308.528 136.39C308.013 135.933 307.399 135.602 306.735 135.421C305.145 135.047 302.605 134.929 301.649 134.773C301.096 134.602 300.532 134.469 299.961 134.376C299.497 134.379 299.045 134.523 298.665 134.791C297.658 135.581 296.99 136.965 296.057 137.876C295.907 138.036 295.72 138.157 295.512 138.227C295.304 138.298 295.082 138.316 294.866 138.281C294.087 138.098 293.633 137.991 293.488 137.443C292.819 135.916 293.017 133.908 291.498 132.798C290.654 132.27 289.711 131.92 288.726 131.77C287.299 131.434 285.575 131.337 284.279 131.169C284.532 130.805 284.759 130.424 284.958 130.028C285.805 128.172 285.912 125.972 286.799 124.091L287.337 124.423C287.922 124.715 288.566 124.867 289.219 124.866C291.682 124.651 293.962 123.478 295.569 121.599C296.167 120.917 296.588 120.099 296.795 119.216C297.003 118.334 296.99 117.413 296.759 116.537C296.604 116.016 296.324 115.541 295.944 115.154C295.563 114.766 295.094 114.477 294.577 114.312C293.611 113.965 292.61 113.73 291.591 113.61L290.748 113.412C290.202 111.788 289.942 110.082 289.981 108.369C289.938 107.33 289.676 106.311 289.211 105.38C288.526 104.493 287.65 103.771 286.648 103.269C285.645 102.767 284.543 102.496 283.422 102.478C283.143 102.439 282.861 102.508 282.631 102.67C282.402 102.833 282.244 103.077 282.189 103.353C282.165 103.491 282.169 103.633 282.2 103.77C282.231 103.907 282.289 104.036 282.37 104.151C282.451 104.265 282.554 104.363 282.673 104.437C282.792 104.512 282.925 104.562 283.063 104.586C285.497 105.158 286.763 105.455 287.23 106.524C287.584 107.412 287.722 108.372 287.634 109.324C287.598 111.193 287.929 113.051 288.608 114.792C288.725 115.055 288.896 115.291 289.111 115.483C289.325 115.675 289.578 115.819 289.853 115.906L292.903 116.623C293.422 116.746 293.974 116.875 294.117 117.286C294.237 117.874 294.179 118.486 293.951 119.042C293.722 119.598 293.334 120.073 292.835 120.408C291.774 121.311 290.447 121.841 289.056 121.917C288.797 121.856 288.44 121.772 288.136 121.461C287.524 121.155 286.866 120.954 286.187 120.866C285.745 120.791 285.29 120.864 284.894 121.075C284.498 121.285 284.182 121.62 283.997 122.029C282.926 124.106 282.654 126.575 281.641 128.7C281.352 129.261 280.978 129.774 280.53 130.22C279.687 130.021 278.461 129.117 278.299 129.079C277.424 128.586 276.485 128.216 275.51 127.978C275.397 126.344 275.061 124.733 274.513 123.189C274.149 122.36 273.598 121.626 272.902 121.046C272.206 120.467 271.385 120.057 270.504 119.85C269.737 119.62 268.924 119.588 268.142 119.758C267.36 119.927 266.633 120.292 266.03 120.819C264.576 122.395 263.463 124.255 262.76 126.282L261.408 126.204L256.152 124.968C255.057 124.708 254 124.31 253.006 123.784C252.24 123.398 252.246 122.646 252.429 121.867C253.07 120.02 253.997 118.285 255.178 116.727C257.543 113.472 260.619 110.799 264.172 108.911C267.748 106.941 271.704 105.758 275.774 105.44C275.974 105.377 276.146 105.249 276.264 105.076C276.381 104.903 276.438 104.696 276.424 104.488C276.41 104.279 276.326 104.081 276.186 103.926C276.046 103.771 275.858 103.667 275.652 103.631C271.289 103.82 267.015 104.928 263.109 106.88C259.132 108.841 255.661 111.693 252.966 115.214C251.179 117.34 249.928 119.864 249.318 122.574C249.221 123.408 249.381 124.252 249.776 124.993C250.17 125.734 250.781 126.338 251.527 126.723C252.696 127.365 253.928 127.884 255.204 128.272L260.655 129.554C261.496 129.807 262.353 130.008 263.219 130.156C263.611 130.222 264.014 130.168 264.376 130.003C264.738 129.838 265.043 129.569 265.251 129.23C265.967 127.412 266.869 125.674 267.943 124.042C268.122 123.74 268.392 123.503 268.713 123.363C269.035 123.224 269.393 123.189 269.735 123.265C270.101 123.349 270.442 123.519 270.73 123.759C271.019 123.999 271.247 124.304 271.396 124.648C271.902 126.325 272.219 128.054 272.342 129.801C272.414 130.142 272.569 130.461 272.792 130.728C273.016 130.996 273.302 131.204 273.625 131.336C274.9 131.73 276.201 132.036 277.519 132.251C277.843 132.327 279.916 133.123 280.703 133.273C281.015 133.354 281.342 133.364 281.658 133.302C281.975 133.24 282.274 133.108 282.533 132.916L282.579 132.721C283.844 133.019 286.104 133.31 287.946 133.778C288.593 133.901 289.209 134.15 289.759 134.512C290.422 135.044 290.329 135.879 290.42 136.653C290.464 137.591 290.758 138.501 291.274 139.285C291.958 140.157 292.95 140.733 294.046 140.896C295.023 141.107 296.043 140.958 296.918 140.475C297.96 139.668 298.902 138.74 299.725 137.711C301.023 138.016 305.308 138.578 305.308 138.578C305.179 139.13 303.526 142.953 302.796 144.459C302.067 145.976 301.262 147.456 300.384 148.892L294.486 158.394C294.036 159.234 293.526 160.041 292.96 160.809C292.707 161.153 292.372 161.427 291.985 161.607C290.788 162.008 289.517 162.142 288.263 161.999C286.156 161.709 284.081 161.221 282.065 160.542L277.587 159.489C277.093 159.409 276.606 159.294 276.127 159.146C276.942 158.053 277.585 156.842 278.033 155.554C279.03 153.251 279.608 150.79 279.742 148.285C279.689 147.926 279.54 147.587 279.311 147.304C279.083 147.022 278.782 146.806 278.442 146.678L276.052 145.774C275.188 145.412 274.439 144.821 273.885 144.066C273.656 143.764 273.491 143.418 273.401 143.049C273.311 142.68 273.297 142.297 273.362 141.923C273.575 141.014 273.69 140.528 274.297 140.568C275.4 140.766 276.47 141.121 277.473 141.623C278.147 141.964 278.892 142.139 279.647 142.134C280.051 141.995 280.415 141.757 280.704 141.443C280.993 141.128 281.199 140.746 281.303 140.331C281.841 138.577 282.261 136.788 282.562 134.977C282.586 134.839 282.582 134.697 282.551 134.56C282.52 134.423 282.462 134.294 282.381 134.179C282.3 134.065 282.197 133.967 282.078 133.893C281.959 133.818 281.826 133.768 281.688 133.745C281.414 133.698 281.133 133.76 280.904 133.917C280.675 134.074 280.517 134.314 280.462 134.587C280.156 136.354 279.679 138.089 279.04 139.765C278.125 139.426 277.236 139.023 276.379 138.557C275.321 138.077 274.127 137.991 273.012 138.314C272.397 138.598 271.865 139.034 271.466 139.582C271.068 140.13 270.816 140.77 270.735 141.443C270.464 142.617 270.584 143.847 271.076 144.947C271.82 146.476 273.018 147.738 274.506 148.561L276.369 149.376C276.203 150.725 275.891 152.052 275.439 153.334C274.979 154.871 274.155 156.275 273.039 157.427C273 157.589 272.676 157.513 272.466 157.532C271.743 157.567 271.019 157.523 270.305 157.401L266.249 156.448C264.646 156.114 263.07 155.664 261.533 155.099C260.661 154.808 259.85 154.362 259.137 153.783C258.725 153.417 258.41 152.955 258.221 152.437C257.766 151.166 257.512 149.771 257.101 148.75C255.366 144.779 253.924 140.687 252.789 136.505C252.078 133.733 251.667 130.892 251.562 128.033C251.578 127.901 251.566 127.767 251.527 127.641C251.487 127.514 251.421 127.397 251.333 127.298C251.245 127.199 251.137 127.12 251.016 127.066C250.894 127.012 250.763 126.984 250.631 126.985C250.498 126.986 250.367 127.015 250.247 127.07C250.126 127.125 250.019 127.206 249.932 127.306C249.844 127.406 249.78 127.523 249.742 127.65C249.704 127.777 249.693 127.911 249.711 128.042C249.637 131.053 249.918 134.061 250.548 137.005C251.515 141.385 252.792 145.69 254.368 149.888C254.806 151.087 254.984 152.806 255.505 154.23C255.795 155.065 256.273 155.821 256.903 156.442C257.888 157.299 259.014 157.981 260.23 158.457L261.709 159.01L261.152 161.379C261.011 162.063 260.997 162.767 261.109 163.457C261.229 164.197 261.537 164.894 262.003 165.482L262.51 165.944C262.472 166.037 262.449 166.136 262.442 166.236C262.118 168.152 262.218 170.115 262.733 171.989C263.179 173.387 264.016 174.63 265.144 175.569C266.531 176.615 268.142 177.324 269.849 177.643C271.557 177.961 273.315 177.879 274.986 177.403C276.722 177.005 278.271 176.028 279.377 174.633C280.483 173.237 281.081 171.506 281.071 169.725C281.639 169.6 282.19 169.407 282.712 169.152C283.601 168.635 284.373 167.94 284.98 167.11C285.588 166.281 286.017 165.335 286.242 164.332L287.995 164.744C289.658 164.991 291.355 164.876 292.97 164.407C293.866 164.107 294.665 163.574 295.285 162.862C295.969 162.023 296.599 161.142 297.172 160.224C298.67 158.076 300.29 155.992 301.788 153.844C302.462 152.873 303.095 151.926 303.719 150.874C304.66 149.349 305.52 147.873 306.337 146.148C307.13 144.507 307.803 142.812 308.351 141.074C308.696 140.074 308.939 139.041 309.076 137.991C309.097 137.701 309.059 137.41 308.965 137.135C308.87 136.86 308.722 136.607 308.528 136.39ZM275.533 173.765C274.152 174.257 272.672 174.402 271.221 174.189C269.769 174.053 268.368 173.583 267.127 172.816C266.154 172.232 265.411 171.332 265.021 170.266C264.681 169.284 264.484 168.257 264.436 167.218L264.631 167.264C265.881 167.777 267.168 168.194 268.481 168.512C270.396 168.962 272.364 169.185 274.211 169.482C275.755 169.715 277.313 169.853 278.874 169.893C278.701 170.773 278.302 171.593 277.716 172.271C277.13 172.95 276.378 173.465 275.533 173.765ZM281.488 166.638C279.241 167.088 276.913 166.886 274.777 166.054C272.662 165.728 270.45 165.379 268.204 164.885C267.317 164.728 266.439 164.522 265.575 164.267C265.09 164.127 264.633 163.904 264.224 163.607C263.854 163.396 263.559 163.075 263.378 162.689C263.251 162.182 263.235 161.652 263.332 161.138C263.425 160.601 263.55 160.07 263.706 159.548L265.361 159.937C267.4 160.468 269.479 160.83 271.577 161.021C272.569 161.067 273.558 160.89 274.473 160.504C274.576 160.71 274.739 160.879 274.94 160.99C275.596 161.279 276.272 161.518 276.964 161.706L281.377 162.743L284.074 163.651C283.872 164.3 283.538 164.901 283.093 165.415C282.648 165.929 282.102 166.346 281.488 166.638Z" fill="black"/>
<path d="M328.541 123.94C328.343 122.369 328.046 120.812 327.651 119.279C327.21 116.85 326.217 114.554 324.748 112.57C323.279 110.586 321.373 108.966 319.178 107.836C314.938 105.634 310.176 104.633 305.408 104.942C305.267 104.948 305.128 104.982 304.999 105.042C304.871 105.103 304.756 105.188 304.662 105.293C304.567 105.398 304.494 105.521 304.447 105.655C304.4 105.789 304.38 105.931 304.389 106.072C304.411 106.348 304.537 106.605 304.74 106.792C304.944 106.98 305.21 107.084 305.487 107.083C309.818 106.904 314.117 107.914 317.915 110.005C319.728 110.992 321.288 112.386 322.471 114.078C323.653 115.771 324.427 117.714 324.731 119.757C324.828 120.362 325.08 121.619 325.203 122.847C325.325 124.074 325.501 124.492 325.272 124.883C325.043 125.275 324.766 125.141 324.461 125.275C323.6 125.586 322.552 125.819 321.699 126.098C321.174 126.277 320.677 126.529 320.222 126.846C319.982 127.012 319.777 127.223 319.62 127.468C319.462 127.713 319.355 127.987 319.304 128.274C319.182 128.793 319.211 129.69 319.119 130.08C318.909 130.802 318.53 131.464 318.015 132.012C317.868 132.219 317.671 132.385 317.441 132.493C317.212 132.601 316.958 132.648 316.705 132.628C315.959 132.453 315.741 131.922 315.531 131.359C315.249 130.453 314.882 129.576 314.435 128.739C314.006 127.982 313.365 127.368 312.591 126.97C312.1 126.716 311.554 126.587 311.001 126.596C309.716 126.784 308.447 127.069 307.205 127.45C306.894 127.547 306.571 127.598 306.245 127.601C306.245 127.601 306.083 127.563 306.018 127.548C305.85 127.142 305.72 126.722 305.628 126.292C305.359 124.962 305.273 123.435 304.997 122.274L304.877 121.767C306.763 121.188 308.501 120.206 309.971 118.889C310.721 118.168 311.172 117.189 311.232 116.149C311.293 115.11 310.958 114.085 310.296 113.282C309.984 112.786 309.577 112.357 309.097 112.021C308.617 111.685 308.076 111.448 307.503 111.324C305.732 111.255 303.958 111.377 302.212 111.69L302.18 111.1L301.545 105.643C301.518 105.392 301.392 105.161 301.195 105.002C300.998 104.844 300.746 104.77 300.494 104.797C300.243 104.824 300.012 104.95 299.853 105.147C299.695 105.344 299.621 105.596 299.648 105.848L300.04 111.316C300.04 111.316 300.088 112.423 300.167 112.818C300.2 113.06 300.307 113.286 300.473 113.466C300.639 113.646 300.856 113.771 301.094 113.824C302.684 114.197 304.599 113.483 306.315 113.613C306.695 113.608 307.07 113.707 307.399 113.899C307.728 114.091 307.998 114.368 308.181 114.702C308.44 115.044 308.565 115.468 308.534 115.895C308.503 116.323 308.317 116.724 308.012 117.025C306.463 118.224 304.675 119.077 302.768 119.525C302.468 119.613 302.2 119.787 301.998 120.025C301.796 120.264 301.668 120.556 301.63 120.867C301.619 121.636 301.703 122.403 301.881 123.151C302.091 124.296 302.145 125.816 302.342 127.163C302.463 127.872 302.668 128.564 302.953 129.224C303.163 129.704 303.482 130.127 303.886 130.46C304.289 130.792 304.766 131.026 305.276 131.14C306.606 131.301 307.955 131.149 309.215 130.697C309.948 130.492 311.118 130.322 311.118 130.322C311.477 130.81 311.743 131.36 311.901 131.944C312.172 132.809 312.553 133.635 313.035 134.402C313.395 134.932 313.868 135.374 314.419 135.699C314.97 136.024 315.586 136.223 316.223 136.282C316.882 136.366 317.551 136.31 318.187 136.117C318.823 135.924 319.41 135.599 319.911 135.162C321.179 134.089 322.089 132.655 322.521 131.051C322.729 130.532 322.857 129.985 322.902 129.428C323.963 128.993 325.471 128.697 326.62 128.179C327.225 127.853 327.745 127.389 328.137 126.824C328.561 125.926 328.702 124.92 328.541 123.94Z" fill="black"/>
</g>
<defs>
<clipPath id="clip0_274_188">
<rect width="80" height="80" fill="white" transform="translate(255.307 92) rotate(13.2286)"/>
</clipPath>
</defs>
</svg>
