<svg width="485" height="152" viewBox="0 0 485 152" fill="none" xmlns="http://www.w3.org/2000/svg">
<g style="mix-blend-mode:plus-lighter" opacity="0.7">
<path fill-rule="evenodd" clip-rule="evenodd" d="M264.068 70.6819L182.295 71.6522L181.495 4.2243L190.257 4.12034C230.58 3.64188 263.588 30.208 263.982 63.4575L264.068 70.6819Z" fill="white" fill-opacity="0.5"/>
<path d="M263.548 57.4245C263.724 58.7494 263.848 60.0876 263.918 61.4377L261.421 61.5672C261.454 62.2043 261.475 62.8444 261.483 63.4871L261.504 65.2932L264.004 65.2636L264.038 68.1821L261.994 68.2063L262.002 68.9L261.547 68.9054L261.568 70.7115L257.935 70.7547L257.906 68.2548L253.817 68.3033L253.847 70.8032L249.758 70.8517L249.728 68.3519L245.64 68.4004L245.669 70.9002L241.581 70.9487L241.551 68.4489L237.462 68.4974L237.492 70.9972L233.403 71.0457L233.374 68.5459L229.285 68.5944L229.315 71.0943L225.226 71.1428L225.196 68.6429L221.108 68.6915L221.137 71.1913L217.049 71.2398L217.019 68.74L212.931 68.7885L212.96 71.2883L208.872 71.3368L208.842 68.837L204.753 68.8855L204.783 71.3853L200.694 71.4339L200.665 68.934L196.576 68.9825L196.606 71.4824L192.517 71.5309L192.487 69.0311L188.399 69.0796L188.428 71.5794L184.795 71.6225L184.77 69.5154L184.315 69.5208L184.31 69.1281L182.266 69.1523L182.22 65.3308L184.72 65.3011L184.67 61.0869L182.17 61.1166L182.12 56.9023L184.62 56.8727L184.57 52.6584L182.07 52.6881L182.02 48.4738L184.52 48.4442L184.47 44.2299L181.97 44.2596L181.92 40.0454L184.42 40.0157L184.37 35.8015L181.87 35.8311L181.82 31.6169L184.32 31.5872L184.27 27.373L181.77 27.4026L181.72 23.1884L184.22 23.1587L184.17 18.9445L181.67 18.9741L181.62 14.7599L184.12 14.7302L184.07 10.516L181.57 10.5457L181.525 6.72413L183.715 6.69814L183.711 6.30543L184.02 6.30176L183.995 4.19464L188.066 4.14633L188.096 6.64616L190.286 6.62017C190.944 6.61236 191.599 6.61196 192.253 6.61885L192.279 4.11899C193.632 4.13327 194.976 4.17799 196.31 4.25236L196.171 6.74848C197.484 6.82164 198.786 6.92432 200.078 7.05571L200.331 4.56854C201.676 4.70541 203.01 4.87256 204.332 5.06914L203.964 7.54194C205.263 7.73511 206.549 7.95752 207.822 8.20828L208.305 5.75544C209.633 6.01696 210.946 6.30847 212.244 6.62907L211.644 9.05612C212.919 9.37099 214.178 9.7147 215.421 10.0863L216.137 7.69111C217.433 8.07874 218.712 8.49591 219.973 8.94165L219.14 11.2987C220.376 11.7357 221.593 12.2008 222.791 12.6932L223.741 10.381C224.992 10.8951 226.222 11.4382 227.431 12.0091L226.363 14.2695C227.546 14.8284 228.707 15.4146 229.845 16.0271L231.03 13.8258C232.221 14.4671 233.388 15.1366 234.53 15.833L233.228 17.9672C234.344 18.6481 235.434 19.3553 236.497 20.0876L237.915 18.029C239.029 18.7964 240.114 19.5908 241.17 20.4112L239.636 22.3852C240.665 23.1847 241.664 24.0092 242.631 24.8574L244.279 22.9776C245.296 23.8691 246.28 24.7865 247.23 25.7284L245.47 27.5035C246.392 28.4188 247.281 29.3574 248.134 30.3181L250.003 28.6587C250.9 29.6691 251.759 30.7037 252.58 31.7612L250.604 33.2933C251.397 34.3155 252.151 35.3591 252.864 36.4226L254.94 35.0297C255.693 36.1506 256.402 37.2937 257.068 38.4576L254.898 39.699C255.537 40.8164 256.134 41.9529 256.685 43.1072L258.941 42.0291C259.521 43.2439 260.055 44.4782 260.541 45.7307L258.21 46.6342C258.672 47.8279 259.089 49.0382 259.457 50.2637L261.851 49.5447C262.237 50.8303 262.573 52.1326 262.857 53.45L260.413 53.9768C260.682 55.2221 260.901 56.4815 261.07 57.7537L263.548 57.4245Z" stroke="#FFFAFA" stroke-opacity="0.3" stroke-width="5" stroke-dasharray="4 4"/>
<path fill-rule="evenodd" clip-rule="evenodd" d="M272.046 70.5872L353.819 69.6169L353.018 2.189L344.257 2.29296C303.934 2.77142 271.566 30.1133 271.96 63.3627L272.046 70.5872Z" fill="white" fill-opacity="0.5"/>
<path fill-rule="evenodd" clip-rule="evenodd" d="M364.985 2.04712L445.761 1.08866L446.561 68.5165L437.906 68.6192C398.075 69.0919 365.465 42.521 365.071 9.27153L364.985 2.04712Z" fill="white" fill-opacity="0.5"/>
<path fill-rule="evenodd" clip-rule="evenodd" d="M537.506 0L455.733 0.970289L456.533 68.3982L465.294 68.2942C505.617 67.8157 537.986 40.4739 537.591 7.22442L537.506 0Z" fill="white" fill-opacity="0.5"/>
<path fill-rule="evenodd" clip-rule="evenodd" d="M539.232 145.546L457.46 146.516L456.66 79.0881L465.421 78.9841C505.744 78.5057 538.752 105.072 539.147 138.321L539.232 145.546Z" fill="white" fill-opacity="0.5"/>
<path d="M538.713 132.288C538.888 133.613 539.012 134.951 539.082 136.301L538.084 136.353C538.118 137.01 538.139 137.67 538.147 138.333L538.168 140.139L539.168 140.127L539.211 143.74L538.211 143.751L538.221 144.558L537.176 144.57L537.188 145.57L533.099 145.618L533.088 144.618L528.999 144.667L529.011 145.667L524.922 145.715L524.91 144.716L520.822 144.764L520.834 145.764L516.745 145.812L516.733 144.813L512.644 144.861L512.656 145.861L508.568 145.91L508.556 144.91L504.467 144.958L504.479 145.958L500.39 146.007L500.379 145.007L496.29 145.055L496.302 146.055L492.213 146.104L492.201 145.104L488.113 145.152L488.125 146.152L484.036 146.201L484.024 145.201L479.935 145.249L479.947 146.249L475.859 146.298L475.847 145.298L471.758 145.346L471.77 146.346L467.681 146.395L467.67 145.395L463.581 145.443L463.593 146.443L459.504 146.492L459.492 145.492L458.448 145.504L458.435 144.397L457.435 144.409L457.385 140.195L458.385 140.183L458.335 135.968L457.335 135.98L457.285 131.766L458.285 131.754L458.235 127.54L457.235 127.552L457.185 123.338L458.185 123.326L458.135 119.112L457.135 119.123L457.085 114.909L458.085 114.897L458.035 110.683L457.035 110.695L456.985 106.481L457.985 106.469L457.935 102.255L456.935 102.266L456.885 98.0522L457.885 98.0403L457.835 93.8261L456.835 93.8379L456.785 89.6237L457.785 89.6118L457.735 85.3976L456.735 85.4094L456.685 81.1952L457.685 81.1833L457.672 80.0761L458.862 80.062L458.85 79.0621L463.231 79.0101L463.243 80.01L465.433 79.984C466.102 79.9761 466.768 79.9757 467.433 79.9827L467.444 78.9828C468.796 78.997 470.14 79.0418 471.475 79.1161L471.419 80.1146C472.754 80.189 474.08 80.2935 475.394 80.4272L475.495 79.4323C476.841 79.5692 478.175 79.7363 479.497 79.9329L479.349 80.922C480.671 81.1187 481.981 81.345 483.276 81.6004L483.47 80.6192C484.797 80.8807 486.11 81.1722 487.408 81.4928L487.168 82.4637C488.466 82.7843 489.749 83.1344 491.015 83.513L491.301 82.5549C492.597 82.9425 493.876 83.3597 495.137 83.8054L494.804 84.7482C496.064 85.1936 497.304 85.6677 498.525 86.1696L498.906 85.2447C500.156 85.7589 501.387 86.302 502.595 86.8728L502.168 87.777C503.375 88.347 504.559 88.9451 505.72 89.57L506.194 88.6895C507.385 89.3309 508.553 90.0004 509.694 90.6968L509.173 91.5505C510.313 92.2457 511.426 92.968 512.512 93.7162L513.08 92.8927C514.193 93.6601 515.279 94.4546 516.334 95.275L515.721 96.0646C516.773 96.882 517.794 97.7253 518.784 98.5933L519.444 97.8414C520.46 98.7329 521.444 99.6502 522.394 100.592L521.69 101.302C522.635 102.24 523.546 103.201 524.42 104.186L525.168 103.522C526.064 104.533 526.924 105.568 527.744 106.625L526.954 107.238C527.767 108.287 528.541 109.358 529.274 110.451L530.105 109.893C530.857 111.014 531.567 112.157 532.232 113.321L531.364 113.818C532.022 114.967 532.635 116.136 533.203 117.324L534.105 116.893C534.686 118.108 535.22 119.342 535.705 120.595L534.773 120.956C535.249 122.186 535.678 123.433 536.058 124.696L537.015 124.408C537.401 125.694 537.737 126.996 538.021 128.314L537.044 128.524C537.321 129.809 537.547 131.108 537.721 132.42L538.713 132.288Z" stroke="#FFFAFA" stroke-opacity="0.3" stroke-width="2" stroke-dasharray="4 4"/>
<path fill-rule="evenodd" clip-rule="evenodd" d="M366.909 80.1531L448.682 79.1828L449.482 146.611L440.721 146.715C400.398 147.193 367.39 120.627 366.995 87.3775L366.909 80.1531Z" fill="white" fill-opacity="0.5"/>
<path fill-rule="evenodd" clip-rule="evenodd" d="M0 6.37793L81.7726 5.40764L82.5727 72.8355L73.8113 72.9395C33.4883 73.4179 0.48025 46.8518 0.0857227 13.6023L0 6.37793Z" fill="white" fill-opacity="0.5"/>
<path d="M0.51989 19.6353C0.343935 18.3104 0.220069 16.9722 0.150029 15.6221L2.64667 15.4926C2.61362 14.8555 2.59317 14.2154 2.58555 13.5727L2.56412 11.7666L0.064292 11.7962L0.0296621 8.87775L2.07396 8.8535L2.06573 8.15978L2.52125 8.15437L2.49982 6.34827L6.13293 6.30516L6.16259 8.80498L10.2512 8.75647L10.2216 6.25664L14.3102 6.20813L14.3399 8.70795L18.4285 8.65944L18.3988 6.15961L22.4875 6.1111L22.5171 8.61092L26.6058 8.56241L26.5761 6.06259L30.6647 6.01407L30.6944 8.5139L34.783 8.46538L34.7534 5.96556L38.842 5.91704L38.8717 8.41687L42.9603 8.36835L42.9306 5.86853L47.0193 5.82001L47.0489 8.31984L51.1375 8.27132L51.1079 5.7715L55.1965 5.72298L55.2262 8.22281L59.3148 8.17429L59.2851 5.67447L63.3738 5.62596L63.4034 8.12578L67.4921 8.07727L67.4624 5.57744L71.551 5.52893L71.5807 8.02875L75.6693 7.98024L75.6397 5.48041L79.2728 5.4373L79.2978 7.54442L79.7533 7.53902L79.758 7.93172L81.8023 7.90747L81.8476 11.729L79.3478 11.7587L79.3978 15.9729L81.8976 15.9432L81.9476 20.1575L79.4478 20.1871L79.4978 24.4014L81.9976 24.3717L82.0476 28.586L79.5478 28.6156L79.5978 32.8299L82.0976 32.8002L82.1477 37.0145L79.6478 37.0441L79.6978 41.2584L82.1977 41.2287L82.2477 45.4429L79.7478 45.4726L79.7978 49.6868L82.2977 49.6572L82.3477 53.8714L79.8478 53.9011L79.8979 58.1153L82.3977 58.0857L82.4477 62.2999L79.9479 62.3296L79.9979 66.5438L82.4977 66.5141L82.543 70.3357L80.3527 70.3617L80.3574 70.7544L80.0479 70.7581L80.0729 72.8652L76.0017 72.9135L75.972 70.4137L73.7817 70.4396C73.1241 70.4474 72.4686 70.4479 71.8153 70.441L71.7889 72.9408C70.436 72.9265 69.092 72.8818 67.7578 72.8075L67.8969 70.3113C66.5844 70.2382 65.2818 70.1355 63.9902 70.0041L63.7372 72.4913C62.3918 72.3544 61.0576 72.1873 59.7359 71.9907L60.1036 69.5179C58.8049 69.3247 57.5186 69.1023 56.246 68.8515L55.7627 71.3044C54.4356 71.0429 53.1225 70.7513 51.8246 70.4307L52.4241 68.0037C51.1495 67.6888 49.8902 67.3451 48.6475 66.9735L47.9313 69.3687C46.635 68.9811 45.3559 68.5639 44.0952 68.1182L44.9285 65.7611C43.6925 65.3241 42.475 64.859 41.2774 64.3666L40.3268 66.6789C39.0761 66.1647 37.8458 65.6216 36.6373 65.0507L37.7052 62.7903C36.5222 62.2314 35.3612 61.6452 34.2235 61.0328L33.0385 63.2341C31.8471 62.5927 30.6799 61.9232 29.5383 61.2268L30.8403 59.0926C29.7243 58.4117 28.6342 57.7046 27.5714 56.9722L26.1529 59.0308C25.0392 58.2634 23.9538 57.469 22.8981 56.6486L24.4321 54.6746C23.4033 53.8751 22.4044 53.0506 21.4371 52.2024L19.7889 54.0822C18.7721 53.1907 17.788 52.2733 16.8382 51.3315L18.5986 49.5563C17.6756 48.6411 16.7871 47.7024 15.9345 46.7417L14.0647 48.4011C13.168 47.3907 12.3087 46.3561 11.4886 45.2986L13.464 43.7665C12.6713 42.7443 11.9173 41.7007 11.2037 40.6372L9.12769 42.0301C8.37561 40.9092 7.66577 39.7661 6.99996 38.6023L9.16996 37.3608C8.53072 36.2434 7.93448 35.1069 7.38282 33.9526L5.1272 35.0307C4.54665 33.816 4.01274 32.5816 3.52728 31.3291L5.85832 30.4256C5.39567 29.2319 4.97952 28.0216 4.61147 26.7961L2.21711 27.5151C1.83103 26.2295 1.4951 24.9272 1.21114 23.6098L3.65502 23.083C3.3866 21.8377 3.16708 20.5783 2.99813 19.3061L0.51989 19.6353Z" stroke="#FFFAFA" stroke-opacity="0.3" stroke-width="5" stroke-dasharray="4 4"/>
<path fill-rule="evenodd" clip-rule="evenodd" d="M172.52 4.33105L91.7449 5.28951L92.5449 72.7174L101.199 72.6147C141.031 72.1421 173.001 44.8049 172.606 11.5555L172.52 4.33105Z" fill="white" fill-opacity="0.5"/>
<path fill-rule="evenodd" clip-rule="evenodd" d="M174.247 149.876L93.4718 150.835L92.6717 83.4071L101.326 83.3044C141.157 82.8317 173.767 109.403 174.161 142.652L174.247 149.876Z" fill="white" fill-opacity="0.5"/>
<path fill-rule="evenodd" clip-rule="evenodd" d="M2.92175 84.4719L83.6971 83.5135L84.4972 150.941L75.8427 151.044C36.0115 151.517 3.402 124.946 3.00748 91.6963L2.92175 84.4719Z" fill="white" fill-opacity="0.5"/>
<path fill-rule="evenodd" clip-rule="evenodd" d="M274.167 81.2534L354.943 80.295L355.743 147.723L347.088 147.826C307.257 148.298 274.647 121.727 274.253 88.4778L274.167 81.2534Z" fill="white" fill-opacity="0.5"/>
<path d="M274.677 94.4695C274.506 93.1535 274.385 91.8244 274.316 90.4836L276.813 90.356C276.78 89.7229 276.76 89.0869 276.753 88.4482L276.731 86.6421L274.232 86.6717L274.197 83.7532L276.216 83.7293L276.208 83.0356L276.688 83.0299L276.667 81.2238L280.225 81.1815L280.255 83.6814L284.294 83.6334L284.264 81.1336L288.303 81.0857L288.333 83.5855L292.371 83.5376L292.342 81.0378L296.38 80.9898L296.41 83.4897L300.449 83.4417L300.419 80.9419L304.458 80.894L304.488 83.3938L308.526 83.3459L308.497 80.8461L312.536 80.7982L312.565 83.298L316.604 83.2501L316.574 80.7502L320.613 80.7023L320.643 83.2021L324.682 83.1542L324.652 80.6544L328.691 80.6065L328.72 83.1063L332.759 83.0584L332.729 80.5585L336.768 80.5106L336.798 83.0104L340.837 82.9625L340.807 80.4627L344.846 80.4148L344.875 82.9146L348.914 82.8667L348.884 80.3668L352.443 80.3246L352.468 82.4317L352.948 82.426L352.953 82.8187L354.972 82.7948L355.018 86.6163L352.518 86.646L352.568 90.8602L355.068 90.8306L355.118 95.0448L352.618 95.0745L352.668 99.2887L355.168 99.2591L355.218 103.473L352.718 103.503L352.768 107.717L355.268 107.688L355.318 111.902L352.818 111.931L352.868 116.146L355.368 116.116L355.418 120.33L352.918 120.36L352.968 124.574L355.468 124.545L355.518 128.759L353.018 128.788L353.068 133.003L355.568 132.973L355.618 137.187L353.118 137.217L353.168 141.431L355.668 141.401L355.713 145.223L353.549 145.249L353.554 145.641L353.218 145.645L353.243 147.752L349.252 147.8L349.222 145.3L347.059 145.326C346.406 145.333 345.756 145.334 345.107 145.327L345.08 147.826C343.736 147.812 342.402 147.766 341.077 147.691L341.219 145.195C339.917 145.121 338.624 145.017 337.343 144.884L337.085 147.371C335.749 147.232 334.425 147.063 333.113 146.864L333.488 144.392C332.199 144.197 330.924 143.972 329.662 143.719L329.17 146.17C327.853 145.905 326.55 145.611 325.262 145.287L325.872 142.862C324.608 142.544 323.361 142.197 322.129 141.822L321.401 144.214C320.116 143.822 318.848 143.401 317.598 142.951L318.445 140.599C317.222 140.159 316.016 139.69 314.831 139.193L313.865 141.499C312.627 140.981 311.409 140.433 310.213 139.858L311.297 137.605C310.127 137.042 308.979 136.452 307.854 135.835L306.653 138.028C305.474 137.382 304.32 136.708 303.192 136.006L304.511 133.883C303.409 133.198 302.334 132.488 301.285 131.752L299.849 133.798C298.75 133.027 297.679 132.229 296.638 131.404L298.189 129.444C297.175 128.642 296.191 127.815 295.239 126.964L293.573 128.828C292.572 127.934 291.603 127.014 290.668 126.069L292.444 124.31C291.537 123.394 290.664 122.454 289.826 121.492L287.941 123.134C287.06 122.124 286.216 121.088 285.411 120.031L287.4 118.516C286.622 117.495 285.882 116.452 285.182 115.389L283.094 116.764C282.357 115.645 281.662 114.504 281.01 113.343L283.19 112.119C282.564 111.005 281.981 109.871 281.441 108.72L279.177 109.782C278.61 108.572 278.088 107.343 277.613 106.096L279.95 105.207C279.498 104.018 279.091 102.814 278.732 101.594L276.334 102.301C275.957 101.023 275.629 99.7279 275.352 98.4183L277.798 97.9007C277.536 96.6626 277.321 95.4106 277.156 94.146L274.677 94.4695Z" stroke="#FFFAFA" stroke-opacity="0.3" stroke-width="5" stroke-dasharray="4 4"/>
<path fill-rule="evenodd" clip-rule="evenodd" d="M264.195 81.3718L182.422 82.3421L183.222 149.77L191.984 149.666C232.307 149.188 264.675 121.846 264.281 88.5962L264.195 81.3718Z" fill="white" fill-opacity="0.5"/>
</g>
</svg>
