<svg width="182" height="95" viewBox="0 0 182 95" fill="none" xmlns="http://www.w3.org/2000/svg">
<path d="M70.1581 59L59.6581 48.14L69.9481 38.18H73.6081L62.5081 48.86V47.3L73.9081 59H70.1581ZM57.2881 59V38.18H60.1081V59H57.2881ZM74.5034 52.64V50.09H84.3734V52.64H74.5034ZM88.8116 59V38.18H91.6316V59H88.8116ZM90.7316 59V56.42H101.892V59H90.7316ZM110.869 59.3C109.449 59.3 108.169 58.98 107.029 58.34C105.889 57.68 104.989 56.79 104.329 55.67C103.669 54.55 103.339 53.28 103.339 51.86C103.339 50.46 103.659 49.2 104.299 48.08C104.959 46.96 105.839 46.08 106.939 45.44C108.059 44.78 109.309 44.45 110.689 44.45C112.009 44.45 113.169 44.75 114.169 45.35C115.189 45.95 115.979 46.78 116.539 47.84C117.119 48.9 117.409 50.1 117.409 51.44C117.409 51.64 117.399 51.86 117.379 52.1C117.359 52.32 117.319 52.58 117.259 52.88H105.229V50.63H115.819L114.829 51.5C114.829 50.54 114.659 49.73 114.319 49.07C113.979 48.39 113.499 47.87 112.879 47.51C112.259 47.13 111.509 46.94 110.629 46.94C109.709 46.94 108.899 47.14 108.199 47.54C107.499 47.94 106.959 48.5 106.579 49.22C106.199 49.94 106.009 50.79 106.009 51.77C106.009 52.77 106.209 53.65 106.609 54.41C107.009 55.15 107.579 55.73 108.319 56.15C109.059 56.55 109.909 56.75 110.869 56.75C111.669 56.75 112.399 56.61 113.059 56.33C113.739 56.05 114.319 55.63 114.799 55.07L116.539 56.84C115.859 57.64 115.019 58.25 114.019 58.67C113.039 59.09 111.989 59.3 110.869 59.3ZM126.413 59.3C125.113 59.3 123.933 58.98 122.873 58.34C121.813 57.68 120.973 56.79 120.353 55.67C119.753 54.55 119.453 53.29 119.453 51.89C119.453 50.49 119.753 49.23 120.353 48.11C120.973 46.99 121.803 46.1 122.843 45.44C123.903 44.78 125.093 44.45 126.413 44.45C127.493 44.45 128.453 44.68 129.293 45.14C130.153 45.58 130.843 46.2 131.363 47C131.883 47.78 132.173 48.69 132.233 49.73V54.02C132.173 55.04 131.883 55.95 131.363 56.75C130.863 57.55 130.183 58.18 129.323 58.64C128.483 59.08 127.513 59.3 126.413 59.3ZM126.863 56.75C128.203 56.75 129.283 56.3 130.103 55.4C130.923 54.48 131.333 53.31 131.333 51.89C131.333 50.91 131.143 50.06 130.763 49.34C130.403 48.6 129.883 48.03 129.203 47.63C128.523 47.21 127.733 47 126.833 47C125.933 47 125.133 47.21 124.433 47.63C123.753 48.05 123.213 48.63 122.813 49.37C122.433 50.09 122.243 50.92 122.243 51.86C122.243 52.82 122.433 53.67 122.813 54.41C123.213 55.13 123.763 55.7 124.463 56.12C125.163 56.54 125.963 56.75 126.863 56.75ZM131.153 59V55.16L131.663 51.68L131.153 48.23V44.75H133.883V59H131.153ZM137.814 59V44.75H140.514V59H137.814ZM140.514 50.87L139.494 50.42C139.494 48.6 139.914 47.15 140.754 46.07C141.594 44.99 142.804 44.45 144.384 44.45C145.104 44.45 145.754 44.58 146.334 44.84C146.914 45.08 147.454 45.49 147.954 46.07L146.184 47.9C145.884 47.58 145.554 47.35 145.194 47.21C144.834 47.07 144.414 47 143.934 47C142.934 47 142.114 47.32 141.474 47.96C140.834 48.6 140.514 49.57 140.514 50.87ZM159.994 59V50.69C159.994 49.61 159.654 48.72 158.974 48.02C158.294 47.32 157.414 46.97 156.334 46.97C155.614 46.97 154.974 47.13 154.414 47.45C153.854 47.77 153.414 48.21 153.094 48.77C152.774 49.33 152.614 49.97 152.614 50.69L151.504 50.06C151.504 48.98 151.744 48.02 152.224 47.18C152.704 46.34 153.374 45.68 154.234 45.2C155.094 44.7 156.064 44.45 157.144 44.45C158.224 44.45 159.174 44.72 159.994 45.26C160.834 45.8 161.494 46.51 161.974 47.39C162.454 48.25 162.694 49.17 162.694 50.15V59H159.994ZM149.914 59V44.75H152.614V59H149.914ZM170.879 59.3C170.079 59.3 169.319 59.2 168.599 59C167.899 58.78 167.249 58.48 166.649 58.1C166.049 57.7 165.529 57.23 165.089 56.69L166.829 54.95C167.349 55.59 167.949 56.07 168.629 56.39C169.309 56.69 170.069 56.84 170.909 56.84C171.749 56.84 172.399 56.7 172.859 56.42C173.319 56.12 173.549 55.71 173.549 55.19C173.549 54.67 173.359 54.27 172.979 53.99C172.619 53.69 172.149 53.45 171.569 53.27C170.989 53.07 170.369 52.88 169.709 52.7C169.069 52.5 168.459 52.25 167.879 51.95C167.299 51.65 166.819 51.24 166.439 50.72C166.079 50.2 165.899 49.51 165.899 48.65C165.899 47.79 166.109 47.05 166.529 46.43C166.949 45.79 167.529 45.3 168.269 44.96C169.029 44.62 169.939 44.45 170.999 44.45C172.119 44.45 173.109 44.65 173.969 45.05C174.849 45.43 175.569 46.01 176.129 46.79L174.389 48.53C173.989 48.01 173.489 47.61 172.889 47.33C172.309 47.05 171.649 46.91 170.909 46.91C170.129 46.91 169.529 47.05 169.109 47.33C168.709 47.59 168.509 47.96 168.509 48.44C168.509 48.92 168.689 49.29 169.049 49.55C169.409 49.81 169.879 50.03 170.459 50.21C171.059 50.39 171.679 50.58 172.319 50.78C172.959 50.96 173.569 51.21 174.149 51.53C174.729 51.85 175.199 52.28 175.559 52.82C175.939 53.36 176.129 54.07 176.129 54.95C176.129 56.29 175.649 57.35 174.689 58.13C173.749 58.91 172.479 59.3 170.879 59.3Z" fill="black"/>
<rect x="8" y="31" width="34" height="42" rx="10" fill="#0206FB"/>
<rect x="8" y="31" width="34" height="42" rx="10" fill="#A7D918"/>
<rect y="22" width="34" height="42" rx="10" fill="#0206FB"/>
<rect y="22" width="34" height="42" rx="10" fill="#0206FB"/>
</svg>
