<svg width="159" height="24" viewBox="0 0 159 24" fill="none" xmlns="http://www.w3.org/2000/svg">
<path d="M10.2201 18.2167C10.2201 17.2601 10.2295 14.7034 10.2082 14.3883C10.2268 10.5838 7.7213 7.90001 6.13843 8.10923C5.04314 8.21417 4.12521 8.70725 3.63234 10.1257C3.17553 11.4477 3.58394 13.2061 5.10272 13.6187C6.72674 14.0619 7.67505 14.4305 8.36134 14.9507C9.20226 15.5874 9.88874 16.804 9.90697 18.2182" fill="white"/>
<path d="M10.8684 24C8.00486 24 5.06195 23.2213 2.12296 21.6812L2.05085 21.6421L2.01636 21.5609C0.697465 18.4873 0 15.1254 0 11.8362C0 8.55202 0.668852 5.33403 1.98872 2.26447L2.02498 2.1829L2.09847 2.14222C4.81719 0.720277 7.74187 0 10.7939 0C13.6371 0 16.6735 0.801846 19.5735 2.32289L19.6479 2.35945L19.6822 2.44254C21.0264 5.57289 21.7352 8.9339 21.7352 12.1686C21.7352 15.3907 21.0546 18.6115 19.7089 21.7399L19.6734 21.8221L19.5986 21.8602C16.9214 23.2594 13.9022 24 10.8684 24ZM2.39497 21.2598C5.25009 22.7425 8.09756 23.4913 10.8684 23.4913C13.8064 23.4913 16.7284 22.7823 19.3293 21.4383C20.6213 18.4068 21.2763 15.2868 21.2763 12.1686C21.2763 9.03775 20.5927 5.78104 19.2997 2.74285C16.4854 1.28217 13.5462 0.507591 10.7939 0.507591C7.83907 0.507591 5.00689 1.19952 2.37028 2.56457C1.10469 5.53979 0.460535 8.65738 0.460535 11.8362C0.460535 15.0211 1.12997 18.2791 2.39497 21.2598Z" fill="white"/>
<path d="M9.54148 18.2182C9.54677 16.9921 8.92691 15.9079 8.11676 15.3252C7.39813 14.8103 6.43336 14.4719 4.87696 14.0361C4.39584 13.9002 3.89259 13.5984 3.73679 13.2137C3.32466 13.6722 3.2498 14.7029 3.32231 15.3053C3.40658 16.0024 4.14441 17.1513 5.25538 17.1963C5.93383 17.2264 6.7916 17.0351 7.20295 16.9386C7.91256 16.7694 9.03528 17.2601 9.21401 18.2167" fill="white"/>
<path d="M10.7939 2.17976C8.91025 2.17976 7.2831 3.55129 7.28897 5.92459C7.29486 7.92034 8.74857 8.98875 9.26731 9.75187C10.0512 10.9018 10.4755 12.263 10.5196 14.3457C10.5539 16.0033 10.5521 17.6401 10.5597 18.2202H10.9756C10.9684 17.6133 10.9495 15.8756 10.9711 14.2944C10.9993 12.2111 11.4389 10.9018 12.2231 9.75187C12.7464 8.98875 14.1989 7.92034 14.2021 5.92459C14.2091 3.55129 12.583 2.17976 10.7008 2.17976" fill="white"/>
<path d="M11.2721 18.2167C11.2721 17.2601 11.2623 14.7034 11.2833 14.3883C11.2649 10.5838 13.7688 7.90001 15.353 8.10923C16.4483 8.21417 17.3653 8.70725 17.8595 10.1257C18.3159 11.4477 17.9052 13.2061 16.3881 13.6187C14.7633 14.0619 13.8162 14.4305 13.1282 14.9507C12.2882 15.5874 11.6497 16.804 11.6301 18.2182" fill="white"/>
<path d="M11.9504 18.2182C11.9445 16.9921 12.5641 15.9079 13.3719 15.3252C14.0935 14.8103 15.0595 14.4719 16.6145 14.0361C17.0966 13.9002 17.5993 13.5984 17.7523 13.2137C18.1664 13.6722 18.2411 14.7029 18.1686 15.3053C18.0825 16.0024 17.3466 17.1513 16.2376 17.1963C15.5594 17.2264 14.6971 17.0351 14.2875 16.9386C13.5807 16.7694 12.4548 17.2601 12.2753 18.2167" fill="white"/>
<path d="M12.5314 22.1766L12.2904 20.2347L12.8722 20.1374C13.0139 20.1159 13.1864 20.1432 13.2553 20.2412C13.3316 20.3435 13.3549 20.4282 13.3696 20.5623C13.3915 20.7282 13.348 20.9202 13.1787 21.0158V21.0216C13.3678 21.0216 13.4821 21.1716 13.5152 21.4247C13.5201 21.4781 13.5344 21.6073 13.5201 21.7151C13.4817 21.9715 13.3431 22.0539 13.1093 22.09L12.5314 22.1766ZM12.9059 21.8289C12.9749 21.818 13.0449 21.814 13.0995 21.7754C13.1832 21.7151 13.1756 21.5859 13.164 21.4901C13.1348 21.2793 13.085 21.1993 12.8826 21.2324L12.7554 21.254L12.836 21.8397L12.9059 21.8289ZM12.784 20.9316C12.861 20.9178 12.9655 20.9076 13.009 20.8269C13.0317 20.773 13.0609 20.7302 13.0417 20.6103C13.018 20.4682 12.9753 20.3801 12.8119 20.4143L12.6596 20.4414L12.7196 20.939" fill="white"/>
<path d="M15.0518 21.0087C15.0563 21.0448 15.0616 21.085 15.0636 21.1212C15.1106 21.4754 15.0518 21.7685 14.6912 21.8492C14.1582 21.9626 14.0561 21.5969 13.9622 21.085L13.9122 20.8081C13.8388 20.3182 13.8072 19.9474 14.3269 19.8332C14.6199 19.7741 14.8135 19.9028 14.8941 20.2248C14.9066 20.2728 14.9223 20.3204 14.9282 20.3687L14.6093 20.4414C14.5725 20.3204 14.5237 20.1043 14.3802 20.1224C14.1227 20.1566 14.2078 20.5104 14.2342 20.6581L14.3301 21.1898C14.3589 21.3505 14.4161 21.6073 14.6389 21.5578C14.8198 21.5178 14.741 21.2066 14.7249 21.0792" fill="white"/>
<path d="M15.5635 21.5963L15.4532 19.5867L15.8816 19.4424L16.7797 21.1902L16.4424 21.3016L16.2296 20.8574L15.8551 20.9816L15.9035 21.4866L15.5635 21.5963ZM15.8237 20.6571L16.0944 20.5705L15.735 19.7574" fill="white"/>
<path d="M4.98259 20.077C5.11663 19.6032 5.23676 19.2544 5.74825 19.4093C6.02202 19.4937 6.19173 19.6269 6.1837 19.9781C6.18238 20.0562 6.15901 20.1358 6.14372 20.2131L5.82527 20.1159C5.86701 19.9221 5.89346 19.7682 5.67711 19.6947C5.42705 19.619 5.3661 19.9537 5.33161 20.0982L5.20208 20.625C5.16092 20.7815 5.11154 21.04 5.33161 21.1067C5.51347 21.1608 5.62381 20.9637 5.68965 20.6759L5.46683 20.6108L5.54385 20.3059L6.06768 20.492L5.819 21.5074L5.57795 21.4351L5.63223 21.2205H5.62537C5.51445 21.396 5.37903 21.4143 5.26047 21.3892C4.73664 21.2328 4.79131 20.8548 4.91635 20.3498" fill="white"/>
<path d="M6.9323 20.9347L6.77455 21.7607L6.41945 21.6759L6.79787 19.747L7.40322 19.8981C7.75754 19.9824 7.86454 20.1566 7.81438 20.5151C7.78576 20.7209 7.69385 20.9427 7.46946 20.9247L7.46711 20.9213C7.65681 20.9947 7.67288 21.1003 7.63976 21.2829C7.62546 21.3606 7.52688 21.832 7.59489 21.9082L7.59724 21.9659L7.22979 21.8601C7.2145 21.7295 7.26644 21.4945 7.28701 21.3645C7.30779 21.2494 7.34091 21.0871 7.23508 21.0261C7.15218 20.9774 7.12142 20.9798 7.02774 20.956L6.9323 20.9347ZM6.99286 20.6359L7.23195 20.707C7.37716 20.7302 7.4579 20.6471 7.48651 20.4535C7.51238 20.2758 7.47887 20.2064 7.34855 20.172L7.09222 20.1146" fill="white"/>
<path d="M9.20989 20.178L9.56108 20.223L9.40978 21.579C9.33629 22.0089 9.18579 22.1969 8.75739 22.1381C8.32155 22.0773 8.21808 21.8581 8.24453 21.4247L8.3968 20.0699L8.75073 20.1146L8.59885 21.4392C8.58278 21.5831 8.5526 21.7962 8.78444 21.822C8.99001 21.8393 9.03665 21.6889 9.05978 21.502" fill="white"/>
<path d="M9.94832 22.2123L10.0539 20.2732L10.7287 20.3055C11.0475 20.3228 11.131 20.6103 11.121 20.8847C11.1118 21.0515 11.0646 21.2378 10.9329 21.3388C10.8249 21.4247 10.6861 21.4451 10.5574 21.4381L10.3375 21.4247L10.2936 22.2373L9.94832 22.2123ZM10.3475 21.129L10.5262 21.14C10.6715 21.1458 10.7677 21.0824 10.7802 20.847C10.7873 20.6209 10.7099 20.5826 10.5217 20.5736L10.38 20.5682" fill="white"/>
<path d="M57.5366 4.05391L54.8549 9.42775C53.8427 8.52031 52.6067 7.8524 51.0297 7.8524C47.2978 7.8524 45.782 10.9237 45.782 13.0871C45.782 14.693 46.7344 17.0624 50.0549 17.0624C51.4487 17.0624 53.4302 15.9918 54.0004 15.5048L51.3482 21.7393C50.084 22.0178 49.6687 22.1904 48.5985 22.227C42.6552 22.4228 40.2536 18.392 40.2554 14.273C40.2593 8.82799 44.6442 2.20594 51.9131 2.20594C52.3586 2.20594 52.9034 2.376 53.3692 2.56446L53.8399 1.89979" fill="white"/>
<path d="M68.6017 2.06833L69.3611 21.6H63.7097L63.7063 18.2502H59.8527L58.5844 21.6H52.4554L58.8631 7.65271L57.4182 7.64232L60.1636 2.06833H68.6017ZM63.6697 8.04346L61.4909 13.7245H63.7353" fill="white"/>
<path d="M36.6875 2.06833C39.4862 2.08564 41.0677 3.7629 41.0677 6.18575C41.0677 8.41928 39.3998 10.3964 37.5688 11.4187C39.4538 12.1838 39.6169 14.0619 39.6169 15.3905C39.6169 18.6005 36.6995 21.6 32.9072 21.6H24.6368L27.8629 7.84699L26.5377 7.83856L29.2466 2.06833C29.2466 2.06833 34.4117 2.05102 36.6875 2.06833ZM33.9417 9.98727C34.5206 9.98727 35.5428 9.82543 35.7984 8.58847C36.0784 7.24572 35.1191 7.20959 34.659 7.20959L33.0148 7.20163L32.4414 9.98733L33.9417 9.98727ZM31.6171 13.4387L30.8601 16.6487H32.7961C33.5578 16.6487 34.5959 16.2313 34.8503 15.1867C35.1015 14.1391 34.3758 13.4387 33.6168 13.4387" fill="white"/>
<path d="M114.538 21.434C114.547 21.3973 115.054 18.267 115.664 14.4778C116.273 10.6886 116.78 7.5497 116.79 7.50246L116.808 7.41659H121.271L121.252 7.52155C121.218 7.7027 120.92 9.6995 120.92 9.7442C120.92 9.7676 121.08 9.62703 121.276 9.43183C122.471 8.24138 123.699 7.49948 124.824 7.2872C125.528 7.15445 126.509 7.23275 127.166 7.4741C128.079 7.80964 128.632 8.29864 128.977 9.07584C129.407 10.0444 129.452 11.065 129.148 12.951C129.044 13.5993 127.8 21.4764 127.8 21.4892C127.8 21.4956 126.711 21.5008 125.379 21.5008H122.959L122.977 21.4149C122.998 21.3139 123.883 16.1548 124.012 15.3747C124.17 14.4238 124.308 13.2841 124.308 12.932C124.307 12.3979 124.177 11.9777 123.954 11.7934C123.785 11.6536 123.504 11.507 123.282 11.443C122.727 11.2837 121.977 11.4882 121.534 11.9191C121.195 12.2494 120.817 13.011 120.629 13.7401C120.565 13.9876 119.295 21.3589 119.295 21.4815C119.295 21.4921 118.221 21.5008 116.908 21.5008C114.65 21.5008 114.521 21.4972 114.538 21.434Z" fill="white"/>
<path d="M85.2091 21.4912C85.2096 21.486 85.7202 18.3213 86.3437 14.4587L87.4773 7.43567L89.7158 7.42585C91.8372 7.41654 91.9535 7.41954 91.9372 7.4831C91.8894 7.6692 91.6001 9.71526 91.6186 9.73572C91.6304 9.74879 91.7214 9.6723 91.8208 9.56574C92.3962 8.94858 93.2478 8.27386 93.9487 7.87981C94.7662 7.42015 95.4603 7.22559 96.2813 7.22597C98.0142 7.22676 99.2699 7.97245 99.7504 9.28605C100.081 10.189 100.104 11.2007 99.8342 12.8938C99.5004 14.9857 98.4835 21.4407 98.4835 21.467C98.4835 21.4863 97.441 21.5008 96.0608 21.5008H93.638L93.6579 21.3958C93.7506 20.9052 94.6705 15.4931 94.7494 14.974C94.9382 13.7324 95.0006 13.1452 94.9824 12.7793C94.952 12.1658 94.7848 11.8466 94.3741 11.6177C94.0484 11.4362 93.7772 11.3742 93.4188 11.3994C92.5625 11.4597 92.0042 11.9324 91.5674 12.9669C91.3239 13.5437 91.2378 13.9685 90.6025 17.7306C90.2596 19.7611 89.979 21.4401 89.979 21.4616C89.979 21.488 89.2015 21.5008 87.5936 21.5008C86.2816 21.5008 85.2086 21.4965 85.2091 21.4912Z" fill="white"/>
<path d="M78.9237 21.434C78.9322 21.3973 79.4277 18.2455 80.0247 14.4301L81.1102 7.49292H85.7668L85.747 7.59788C85.7361 7.65561 85.2523 10.7602 84.6718 14.4969C84.0913 18.2336 83.6076 21.3381 83.5971 21.3958L83.5778 21.5008H81.243C79.0365 21.5008 78.909 21.4971 78.9237 21.434Z" fill="white"/>
<path d="M71.2585 21.4531C71.2686 21.4058 71.6191 19.1859 72.0374 16.5198C72.4557 13.8537 72.8067 11.6251 72.8175 11.5674L72.8372 11.4625H71.0285L71.0482 11.3575C71.059 11.2998 71.1929 10.4453 71.3457 9.4586C71.4985 8.47194 71.6321 7.61745 71.6427 7.55972L71.6618 7.45475H73.4872L73.5038 7.36887C73.5129 7.32164 73.5378 7.17994 73.559 7.05398C73.8324 5.42967 74.4257 3.97134 75.128 3.19731C75.6986 2.56831 76.6114 2.12658 77.7408 1.9328C78.288 1.83891 79.7598 1.83814 80.4687 1.93137C81.1065 2.01527 81.8677 2.14914 81.9236 2.18726C81.9561 2.20945 81.8464 2.61568 81.484 3.81478L81.0012 5.41274L80.4859 5.4001C79.5521 5.37721 79.1701 5.48338 78.8468 5.85572C78.5767 6.16672 78.4816 6.44415 78.3475 7.31162L78.3254 7.45475H79.5024C80.5338 7.45475 80.6794 7.46195 80.6794 7.51293C80.6794 7.56211 80.1278 11.0469 80.0708 11.3575L80.0516 11.4625H77.6544L76.8133 16.4337C76.3508 19.1679 75.9647 21.4351 75.9554 21.4718C75.9395 21.5346 75.7971 21.5386 73.5893 21.5386H71.2401L71.2585 21.4531Z" fill="white"/>
<path d="M102.945 21.803C102.126 21.7159 101.594 21.4986 100.99 21.0042C100.538 20.6345 100.235 20.2535 100.024 19.7892C99.7086 19.0964 99.7025 17.9739 100.009 17.0056C100.422 15.699 101.447 14.6242 102.758 14.1215C103.315 13.9081 103.939 13.7496 105.934 13.3156C108.253 12.8108 108.78 12.6783 109.223 12.4881C109.83 12.2278 109.972 12.0605 109.969 11.6075C109.967 11.1897 109.777 10.869 109.41 10.6623C109.025 10.4451 108.223 10.3885 107.669 10.5395C106.835 10.7669 106.124 11.3005 105.858 11.8991C105.767 12.1032 105.755 12.1153 105.657 12.0971C105.6 12.0864 104.593 11.9528 103.419 11.8002C101.515 11.5529 101.284 11.5157 101.284 11.4568C101.284 11.4205 101.325 11.2653 101.375 11.1118C101.711 10.077 102.387 9.18997 103.413 8.4368C104.338 7.75844 105.195 7.43317 106.576 7.23693C107.155 7.15465 109.63 7.14374 110.376 7.22018C111.288 7.31371 112.387 7.62599 113.001 7.96644C113.555 8.27308 114.039 8.73822 114.236 9.15339C114.527 9.7657 114.686 10.6699 114.649 11.5008C114.605 12.4756 114.492 13.2916 113.971 16.3672C113.589 18.6234 113.523 19.0956 113.498 19.7276C113.477 20.2647 113.529 20.741 113.66 21.2034C113.698 21.3356 113.729 21.4565 113.729 21.4723C113.729 21.488 112.72 21.5009 111.486 21.5009H109.243L109.172 21.3342C109.084 21.1272 109.002 20.6818 108.963 20.1924C108.947 19.9871 108.925 19.8098 108.915 19.7984C108.904 19.7871 108.745 19.9183 108.56 20.09C107.902 20.7003 107.353 21.0402 106.554 21.3315C105.424 21.7433 104.06 21.9215 102.945 21.803ZM107.005 18.6679C107.356 18.53 107.837 18.254 108.082 18.0511C108.198 17.9543 108.428 17.7195 108.592 17.5293C108.942 17.1228 109.145 16.7087 109.283 16.1145C109.371 15.7374 109.487 14.9724 109.461 14.943C109.447 14.9277 108.889 15.0824 107.282 15.5481C105.721 16.0002 104.967 16.477 104.794 17.1201C104.731 17.3525 104.725 17.8251 104.781 18.033C104.837 18.2379 105.027 18.4703 105.234 18.5861C105.516 18.7441 105.776 18.7905 106.297 18.7761C106.687 18.7653 106.803 18.7476 107.005 18.6679Z" fill="white"/>
<path d="M149.562 21.8417C148.502 21.7739 147.601 21.5143 146.781 21.0398C145.931 20.5478 145.155 19.6824 144.732 18.7547C144.494 18.2326 144.241 17.2406 144.32 17.1383C144.339 17.1131 145.126 16.4741 146.068 15.7184C147.01 14.9626 147.777 14.3266 147.773 14.3049C147.768 14.2832 147.212 13.6925 146.537 12.9923C145.862 12.2921 145.281 11.6888 145.245 11.6517C145.182 11.5859 145.184 11.578 145.312 11.3421C146.086 9.92188 147.742 8.46623 149.276 7.85771C152.001 6.77649 154.784 6.93832 156.822 8.2966C158.151 9.1819 158.843 10.533 158.984 12.5151C159.036 13.2448 158.959 14.2666 158.765 15.413L158.72 15.6802L148.992 15.6996V16.0827C148.992 16.6229 149.065 16.9814 149.269 17.4425C149.408 17.7548 149.48 17.869 149.64 18.0273C149.884 18.2683 150.316 18.5058 150.656 18.586C151.401 18.7615 152.492 18.4259 153.018 17.8599C153.137 17.7317 153.258 17.5871 153.287 17.5386L153.34 17.4504L155.695 17.6378C156.991 17.7409 158.06 17.8359 158.072 17.8488C158.084 17.8617 157.963 18.0736 157.803 18.3197C156.443 20.4211 154.069 21.7336 151.464 21.8258C150.3 21.867 149.998 21.8695 149.562 21.8417ZM154.157 13.2343C154.197 13.1189 154.176 12.2057 154.128 11.9538C154.004 11.3102 153.63 10.8117 153.129 10.6242C152.621 10.4343 151.993 10.4338 151.478 10.6229C150.62 10.938 149.85 11.9165 149.534 13.0944L149.48 13.2947H151.808C153.899 13.2947 154.138 13.2885 154.157 13.2343Z" fill="white"/>
<path d="M135.267 21.8412C134.067 21.7642 132.875 21.4608 132.111 21.0379C131.369 20.6269 130.734 19.9692 130.202 19.0609C129.767 18.3187 129.529 17.3941 129.529 16.4435C129.529 14.0854 130.095 12.1717 131.267 10.5655C131.587 10.1276 132.084 9.55709 132.395 9.27007C133.816 7.96178 136.042 7.15018 138.213 7.14954C139.747 7.14909 141.242 7.50533 142.164 8.09117C143.062 8.66132 143.852 9.73757 144.185 10.8437C144.364 11.4378 144.466 12.2348 144.413 12.624L144.39 12.7984H139.77L139.756 12.5598C139.737 12.2365 139.627 12.0041 139.334 11.6625C139.042 11.3241 138.908 11.2327 138.5 11.0951C138.221 11.0014 138.136 10.9904 137.687 10.9905C137.255 10.9905 137.139 11.0046 136.847 11.0913C136.285 11.258 136.025 11.4193 135.665 11.823C135.23 12.3102 134.963 12.8421 134.679 13.7864C134.486 14.4244 134.404 14.9081 134.38 15.5465C134.356 16.1676 134.403 16.5297 134.57 17.0142C134.911 18.0045 136.289 18.4526 137.56 17.9863C138.039 17.8103 138.273 17.6501 138.641 17.2463C138.994 16.8587 139.19 16.5514 139.334 16.1593L139.412 15.9473L144.125 15.9276L144.101 16.0329C144.053 16.2474 143.798 16.9266 143.629 17.2899C142.49 19.7378 140.319 21.3047 137.453 21.746C137.116 21.798 135.934 21.8902 135.786 21.8761C135.757 21.8734 135.524 21.8577 135.267 21.8412Z" fill="white"/>
</svg>
