<svg width="98" height="28" viewBox="0 0 98 28" fill="none" xmlns="http://www.w3.org/2000/svg">
<g clip-path="url(#clip0_120_226)">
<rect x="-5" y="-40" width="108" height="108" rx="8" fill="white"/>
<path fill-rule="evenodd" clip-rule="evenodd" d="M9.00024 22.3888L11.9528 22.3764V17.0114C12.3446 16.7929 13.2559 15.5022 13.6064 15.3125C13.8621 15.5516 14.1054 15.9145 14.3116 16.1867C14.559 16.5125 14.7446 16.7516 14.992 17.065C15.4868 17.6877 15.8951 18.2403 16.3858 18.863L18.8147 22.0052C18.9837 22.2197 19.0332 22.3888 19.2477 22.3888L22.8147 22.3846C22.691 22.1166 22.159 21.5351 21.9446 21.2547C21.627 20.8424 21.3425 20.4836 21.0291 20.0877C20.5384 19.4733 15.6807 13.4692 15.5363 13.0898C16.3982 12.2733 18.6456 9.71659 19.6518 8.60731L22.1178 5.93102C21.4951 5.8568 19.0827 5.90215 18.2827 5.90215C17.9982 5.90215 16.8518 7.34958 16.6786 7.56401C16.5301 7.74545 16.4394 7.80319 16.2786 7.98051C16.1343 8.14546 16.0683 8.26917 15.9075 8.42999C15.5446 8.79288 15.4539 8.9537 15.091 9.32071C14.4353 9.98876 12.6126 12.2073 11.9776 12.7929L11.9528 5.92277L9.00024 5.90215L9.00024 22.3888ZM53.6312 12.4176C56.9673 11.8568 58.4394 12.4918 58.4394 16.0052C58.4394 17.2259 58.3075 18.5578 57.6559 19.3578C56.9095 20.2733 53.6848 20.6609 53.6312 18.6073V12.4176ZM55.491 22.6114H56.159C57.8167 22.6114 59.425 21.696 60.0394 20.8506C61.2683 19.164 61.4291 17.931 61.4291 15.7083C61.4291 11.9186 59.0992 9.69597 55.3425 9.87741L53.6353 10.0424L53.6312 5.38257L50.6786 5.38669C50.6786 9.06092 50.6786 12.7187 50.6786 16.3764C50.6786 18.2939 50.4559 19.6671 51.5405 20.9867C52.291 21.898 53.7508 22.6114 55.491 22.6114ZM45.8085 16.5619C45.9075 16.9207 45.8827 18.1908 45.8126 18.5826C45.7054 19.1558 45.4002 19.5145 44.959 19.7331C43.8456 20.2898 41.1157 20.1661 41.3219 17.8692C41.3796 17.2382 41.7054 16.9331 42.1838 16.731C43.2435 16.2774 44.625 16.4135 45.8085 16.5619ZM39.6147 10.5908V12.962C40.1508 12.8795 40.7404 12.6197 41.3837 12.5166C43.5734 12.162 45.6435 12.1372 45.8332 14.6774C44.5466 14.5455 44.4889 14.5042 43.2353 14.5166C40.5219 14.5496 38.3734 15.7908 38.3734 18.529C38.3734 21.131 40.691 22.6114 43.3095 22.6114H43.9776C46.526 22.6114 48.8229 21.1599 48.8229 18.6032V14.8135C48.8229 11.8156 46.7569 9.89391 43.7549 9.89391C42.2374 9.89391 40.992 9.97226 39.6147 10.5908ZM85.9817 16.5619C86.0807 16.9207 86.06 18.1908 85.9899 18.5826C85.8827 19.1558 85.5776 19.5145 85.1363 19.7331C84.0229 20.2898 81.293 20.1661 81.4992 17.8692C81.6642 16.03 84.7157 16.4011 85.9817 16.5619ZM79.792 10.5908V12.962C80.3281 12.8795 80.9178 12.6197 81.5611 12.5166C83.7508 12.162 85.8167 12.1372 86.0106 14.6774C84.724 14.5455 84.6662 14.5042 83.4126 14.5166C80.6992 14.5496 78.5466 15.7908 78.5466 18.529C78.5466 21.131 80.8642 22.6114 83.4868 22.6114H84.1549C86.7033 22.6114 89.0002 21.1599 89.0002 18.6032V14.8135C89.0002 11.8156 86.9343 9.89391 83.9322 9.89391C82.4106 9.89391 81.1693 9.97226 79.792 10.5908ZM68.9219 18.9784L68.9095 21.498C69.0209 21.7042 68.8724 21.564 69.1487 21.7331C69.2394 21.7867 69.4002 21.8568 69.491 21.9022C71.8374 23.065 76.0312 22.9949 77.1569 20.2939C77.5652 19.3042 77.4456 17.9187 76.9879 17.0073C75.9075 14.863 73.058 14.9248 71.9858 14.2073C70.9013 13.4815 71.6435 11.9558 74.9714 12.5661C75.5776 12.6733 76.0147 12.9083 76.4848 13.0114L76.4889 10.8795C76.3157 9.99288 69.5693 8.5537 68.6662 12.8382C68.4023 14.0795 68.6497 15.1599 69.3301 15.898C70.9384 17.6506 74.1714 17.3001 74.4188 18.6898C74.7652 20.6568 71.2807 20.0341 70.2621 19.6465C69.7425 19.4485 69.3384 19.1516 68.9219 18.9784ZM31.3549 10.063H29.2724V12.6073H31.3301C31.5075 14.3104 31.1858 17.9104 31.4002 19.3743C31.6848 21.2712 32.992 22.6114 35.0662 22.6114C36.159 22.6114 36.2002 22.5784 37.2188 22.2692V19.7991C36.5879 19.9888 35.9281 20.1496 35.2106 20.0176C34.4353 19.8774 34.3075 19.3702 34.3075 18.529C34.3075 17.1475 34.2497 13.762 34.324 12.6073H37.2188V10.063H34.3075V6.44237L31.3549 6.42175V10.063ZM63.4332 22.3888H66.1095L66.3899 22.3764L66.3858 10.0795L66.1095 10.0589L63.4332 10.063V22.3888ZM24.3734 22.3888H27.0456L27.326 22.3764V10.0795L27.0456 10.0589L24.3734 10.063V22.3888ZM24.3157 8.36401L24.5961 8.397L27.3714 8.39288L27.3631 5.67948L24.3157 5.6836V8.36401ZM63.3796 8.36401L63.6559 8.397L66.4229 8.39288V5.67948L63.3796 5.6836V8.36401Z" fill="#03AEEF"/>
</g>
<rect x="1" y="1" width="96" height="26" rx="9" stroke="black" stroke-opacity="0.1" stroke-width="2"/>
<defs>
<clipPath id="clip0_120_226">
<rect x="2" y="2" width="94" height="24" rx="8" fill="white"/>
</clipPath>
</defs>
</svg>
