<svg width="80" height="64" viewBox="0 0 80 64" fill="none" xmlns="http://www.w3.org/2000/svg">
<path d="M31.4072 0.498962C32.1325 0.498962 31.9654 1.59406 33.5089 1.59406C34.3927 1.59406 34.4969 1.16144 35.5378 1.16144C38.5389 1.16144 39.6369 4.77515 41.7186 4.77515C42.6695 4.77515 42.7595 4.14264 43.7603 4.14264C44.1373 4.14264 44.8312 4.35828 45.1053 4.64526C45.3837 4.91654 45.9763 5.41912 47.474 9.49829C47.6425 9.94519 47.4026 10.1251 47.1742 10.1251C46.9486 10.1251 46.4803 9.91376 45.4323 8.8158C44.8369 8.19328 44.3414 8.4817 41.7415 6.8526C40.5178 6.09302 39.3413 4.98649 38.0349 4.49677C36.7185 4.01418 34.5269 3.82281 33.6945 3.62292C32.6079 3.37021 30.8732 2.5407 30.8732 1.27997C30.8732 0.863056 31.1188 0.498962 31.4072 0.498962Z" fill="white"/>
<path d="M46.2063 0C46.8102 0 47.2928 0.945178 47.9282 1.57483C49.4159 2.99975 51.7246 2.08027 53.4737 3.83215C53.9206 4.28619 54.2789 5.35989 54.2789 6.39075C54.2789 7.42874 54.0505 8.48816 53.5179 8.48816C52.2772 8.48816 53.081 6.47781 50.5738 4.98578C48.0595 3.48804 47.6426 3.41951 46.6118 2.37866C45.5709 1.33495 45.5238 0.932311 45.5238 0.652466C45.5238 0.376904 45.7194 0 46.2063 0Z" fill="white"/>
<path d="M57.5561 4.70624C58.1701 4.70624 57.9916 5.56578 58.6869 6.13403C59.368 6.70515 59.8163 6.5195 60.7729 7.4704C61.2013 7.89588 61.3112 8.18142 61.3112 8.29993C61.3112 8.41986 61.0742 9.91479 59.5265 9.91479C59.1924 9.91479 58.9268 9.84623 58.6869 9.34222C58.3114 8.59835 58.4799 7.55891 57.6875 6.63513C57.0036 5.837 56.9136 5.7642 56.9136 5.30017C56.9136 4.84471 57.3405 4.70624 57.5561 4.70624Z" fill="white"/>
<path d="M60.0244 12.4324C61.9762 12.9821 62.9257 13.7745 62.9257 14.9624C62.9257 16.1746 62.4502 16.2446 62.0448 16.8314C61.7378 17.2626 61.4308 17.8865 61.4694 19.7312C61.4694 20.111 61.3523 20.3137 61.0739 20.3137C60.8069 20.3137 60.657 20.1667 60.657 19.8997C60.657 19.7183 60.7726 19.5941 60.7726 19.4327C60.7726 19.2771 60.8254 18.3962 60.2186 17.8722C58.4553 16.2745 49.753 15.198 44.2161 15.198C37.4984 15.198 32.1327 16.6215 30.6236 16.6215C27.8922 16.6215 26.6244 15.2666 26.6244 14.25C26.6244 13.2377 27.2183 13.0535 27.2183 12.5709C27.2183 12.084 27.0598 12.0111 27.0598 11.5985C27.0598 11.1816 27.3882 10.3521 27.7223 10.3521C28.2178 10.3521 28.1778 10.9089 28.6532 11.7399C29.2672 12.7764 30.5393 14.1471 32.9437 14.1471C35.084 14.1471 36.8944 13.3333 40.0569 12.6108C43.9291 11.7256 46.9902 11.3016 50.04 11.3016C51.4363 11.3016 56.6677 11.3644 60.0244 12.4324Z" fill="white"/>
<path d="M60.657 23.3405C61.0739 23.3405 61.328 23.4433 61.328 23.7231C61.328 23.9987 60.8926 23.9987 60.6384 24.0515C60.3871 24.0901 58.7166 24.3971 57.9913 25.5664C57.8728 25.7549 57.9728 25.9333 58.1227 26.0033C58.2926 26.0747 60.1801 27.0085 60.1801 27.7167C60.1801 28.3977 58.7238 29.0745 58.2926 29.0745C57.8443 29.0745 57.6858 28.5477 57.6858 28.4506C57.6858 28.2592 58.1013 28.035 58.1013 27.8423C58.1013 27.6695 57.7515 27.4069 57.5558 27.4069C57.3374 27.4069 57.2503 27.5068 57.1304 27.9894C57.0233 28.4791 56.5864 30.4108 56.4864 31.5988C56.3951 32.8052 56.0253 35.8493 56.0253 36.2305C56.0253 36.6331 55.9624 37.7082 55.1001 38.3136C54.2477 38.9033 53.4924 39.3302 53.4924 39.3302C53.4924 39.3302 53.1726 39.54 53.0598 39.54C52.9427 39.54 52.6643 39.2545 52.3259 38.9761C51.9718 38.7091 51.6063 38.682 51.3736 38.682C50.9281 38.682 50.0586 39.3745 49.4146 39.3745C48.7736 39.3745 47.4514 38.662 47.4514 38.2551C47.4514 38.1252 47.7113 38.0067 47.7798 38.0067C48.0597 38.0067 48.5637 38.365 49.1891 38.365C49.8016 38.365 50.357 37.8082 51.1665 37.8082C51.6334 37.8082 52.6971 38.0452 53.5367 38.0452C54.3876 38.0452 54.716 37.8282 54.8531 37.5812C54.9916 37.3256 55.27 36.9972 55.27 36.0249C55.27 35.0654 54.646 31.8086 54.646 29.8354C54.646 27.8423 55.0115 26.1233 56.0096 25.131C57.0033 24.1372 59.1235 23.3405 60.657 23.3405Z" fill="white"/>
<path d="M61.8834 29.0122C62.1147 29.0122 62.3703 29.3192 62.3703 30.1259C62.3703 30.9411 61.7949 36.371 60.3357 40.1346C58.8837 43.8897 58.4782 43.9197 57.1989 46.08C55.9339 48.2459 54.943 50.5345 53.5638 51.9124C53.0326 52.4392 52.2488 53.0831 50.3555 53.0831C48.4751 53.0831 45.7681 52.6805 42.7269 51.4484C39.6857 50.2319 36.6645 48.4243 34.8456 46.6124C34.5786 46.3369 34.7271 46.0799 35.1897 46.3369C35.658 46.5853 38.1237 48.5028 42.8368 49.9292C46.2835 50.9729 47.2273 50.98 48.6707 50.98C50.06 50.98 51.5449 51.2313 53.291 49.4951C55.0301 47.7532 56.4864 44.812 57.1118 43.6783C57.7386 42.5518 58.9736 40.5729 60.1501 36.9064C61.3309 33.2413 61.5393 31.2138 61.6607 29.6261C61.675 29.2849 61.6978 29.0122 61.8834 29.0122Z" fill="white"/>
<path d="M50.089 40.9253C50.7743 40.9253 51.3168 41.879 52.0493 41.879C52.7803 41.879 52.9916 41.0667 53.4385 41.0667C53.864 41.0667 53.9811 42.0075 54.1396 42.3217C54.2981 42.6629 54.3952 42.8286 54.3952 42.9171C54.3952 43.0113 54.2281 43.1355 54.0511 43.1355C53.8826 43.1355 53.5371 42.8286 52.7532 42.8286C52.1792 42.8286 51.7238 43.204 51.6838 43.2954C51.6552 43.3839 51.5339 43.3582 51.4254 43.2897C51.1855 43.1169 50.6843 42.3188 49.8505 42.3188C49.4051 42.3188 48.8297 42.6087 48.2072 42.967C47.5932 43.3583 47.1263 43.5067 46.5809 43.5067C46.104 43.5067 45.4615 43.3154 45.4615 42.9871C45.4615 42.8 45.7185 42.6815 45.927 42.6815C46.411 42.6815 46.8793 42.7914 47.9573 42.1775C48.6912 41.7406 49.4921 40.9253 50.089 40.9253Z" fill="white"/>
<path d="M47.979 44.1677C48.3459 44.1677 48.9399 44.8916 50.7517 44.8916C52.5051 44.8916 52.9805 44.0763 53.3546 44.0763C53.5787 44.0763 53.6244 44.3148 53.6244 44.4061C53.6244 44.4918 52.9434 46.7419 51.0973 46.7419C50.0264 46.7419 48.8713 45.8211 48.453 45.4042C48.0404 44.9887 47.7405 44.5803 47.7405 44.4061C47.7405 44.2234 47.8876 44.1677 47.979 44.1677Z" fill="white"/>
<path d="M44.8313 25.0391C46.0906 25.0391 48.8719 25.3189 48.8719 26.0514C48.8719 26.4569 47.6226 26.0771 46.6632 26.0771C45.6908 26.0771 45.6023 26.13 45.6023 26.2C45.6023 26.2713 45.6223 26.3185 45.6994 26.3884C45.7894 26.457 46.4247 27.1494 46.4247 27.3379C46.4247 28.0832 44.4944 28.8428 44.036 28.8428C43.7905 28.8428 43.2722 28.5686 43.2722 28.2402C43.2722 28.0032 44.2859 27.7548 44.2859 27.5164C44.2859 27.2665 43.7005 26.7739 43.1665 26.7739C42.6282 26.7739 40.9934 27.9204 40.7778 27.9204C40.5523 27.9204 40.5023 27.7733 40.5023 27.5977C40.5023 27.4292 40.6494 27.1208 40.6494 26.9637C40.6494 26.4369 40.2938 26.4955 40.2938 26.0771C40.2938 25.8516 40.5808 25.466 42.1956 25.249C43.8105 25.0277 44.2045 25.0391 44.8313 25.0391Z" fill="white"/>
<path d="M44.0763 21.5155C45.3741 21.5155 48.1098 21.7253 48.5367 21.8096C48.9707 21.891 49.0592 22.0866 49.0592 22.208C49.0592 22.4193 48.9208 22.4464 48.4167 22.4464C47.4844 22.4464 45.1243 22.4521 42.7285 23.1888C38.9663 24.3525 38.4323 25.4562 37.804 25.4562C37.617 25.4562 37.3215 25.2206 37.3215 24.9694C37.3215 24.7352 37.6984 24.1583 37.6984 23.7471C37.6984 23.4372 37.39 23.1104 37.39 22.9233C37.39 22.2366 40.5725 21.5155 44.0763 21.5155Z" fill="white"/>
<path d="M77.3086 20.3555C79.2304 20.3555 80 22.2358 80 24.4746C80 24.823 79.8329 25.4069 79.5188 25.4069C79.0719 25.4069 79.6573 24.1576 78.5165 24.1576C78.2381 24.1576 77.7056 24.4603 77.2387 24.9215C76.7632 25.387 73.9519 29.1776 71.9088 35.4698C70.8907 38.6181 70.4324 40.5899 70.4324 42.2747C70.4324 43.3869 70.7594 44.2364 70.7594 44.6262C70.7594 45.3158 70.0284 44.8675 69.9113 44.6633C69.6315 44.1736 69.106 42.7915 69.106 40.9254C69.106 39.0579 69.9113 34.3505 71.3662 29.5846C72.1472 26.9832 74.3931 20.3555 77.3086 20.3555Z" fill="white"/>
<path d="M71.7227 50.7551C71.9568 50.7551 72.1553 50.8737 72.1553 51.015C72.1553 51.2592 71.2187 52.0502 70.8132 52.4885C70.1535 53.181 69.9679 54.3103 69.4154 54.3103C69.2341 54.3103 69.127 54.1033 69.127 53.9434C69.127 53.7834 69.1969 53.6393 69.1969 53.5237C69.1969 52.9711 68.4845 53.111 68.4845 52.677C68.4845 52.3286 69.5053 51.6576 69.9465 51.3792C70.3848 51.1093 71.3358 50.7551 71.7227 50.7551Z" fill="white"/>
<path d="M70.9463 55.2533C71.2461 55.2533 71.4703 55.3503 71.4703 55.476C71.4703 55.7558 70.3509 56.4169 70.1367 56.6339C69.9197 56.8552 68.7489 58.3901 68.569 59.2639C68.382 60.132 68.1064 60.4119 67.8566 60.4119C67.324 60.4119 67.651 59.5409 67.254 59.2639C66.9685 59.054 66.2132 59.151 66.2132 58.5085C66.2132 58.0916 66.9057 57.4191 67.5482 56.8438C68.1935 56.2698 69.5428 55.2533 70.9463 55.2533Z" fill="white"/>
<path d="M66.4018 46.9336C66.6902 46.9336 66.9058 47.0807 67.0443 47.3291C67.1942 47.5733 67.1285 47.7317 67.3727 47.9587C67.6111 48.2086 68.4849 48.3371 68.4849 48.754C68.4849 49.1609 68.0166 49.161 67.7881 49.328C67.5469 49.4951 66.9229 49.7605 66.4418 50.5944C65.9677 51.4282 65.6893 52.5191 65.5979 54.0154C65.4994 55.5074 65.0168 56.9722 64.2544 58.2216C63.452 59.5722 62.2341 60.6189 61.5573 61.7283C60.9962 62.672 61.1904 63.7214 60.605 63.7214C60.0439 63.7214 59.9539 62.1266 59.9539 61.5726C59.9539 61.0144 60.0938 59.1269 61.5573 57.7462C63.1836 56.2199 64.4886 56.1513 64.4886 53.6841C64.4886 52.1407 64.3029 51.6538 64.3029 50.7144C64.3029 49.7606 64.6299 46.9336 66.4018 46.9336Z" fill="white"/>
<path d="M2.32014 12.9823C3.27819 12.9823 2.21591 13.3721 3.73364 14.887C4.44753 15.5994 4.86586 15.9093 6.5378 15.9093C7.53724 15.9093 8.98502 15.678 12.6201 14.056C14.0536 13.4107 16.3524 12.7168 18.0172 12.7168C20.1446 12.7168 21.8079 13.7505 22.9887 14.6086C24.1695 15.4824 25.5758 16.6903 26.1983 17.1771C26.8194 17.6626 27.7518 18.218 28.1087 18.3551C28.4571 18.4965 28.5271 18.6906 28.4157 18.979C28.3172 19.2431 27.9031 19.87 27.8046 20.0099C27.6932 20.1455 27.2763 20.3554 27.0379 20.4553C26.7923 20.5653 25.8614 20.9408 24.7135 21.8103C23.5812 22.6755 21.6737 23.7135 19.365 23.7135C17.0363 23.7135 13.4797 22.7727 11.5093 22.7727C10.6869 22.7727 9.4676 23.2267 8.60522 24.0891C8.27826 24.4161 8.00413 25.0386 7.77283 25.2556C7.54867 25.4869 6.80336 25.9609 6.5378 25.9609C6.25795 25.9609 5.77394 25.7824 5.77394 25.5168C5.77394 24.99 6.91331 24.7802 6.91331 23.8821C6.91331 22.9826 6.63489 22.9482 6.63489 22.5342C6.63489 22.1173 6.97042 21.3777 7.49442 20.8451C8.62807 19.7186 11.5479 19.0391 14.1721 19.0391C16.074 19.0391 19.7719 19.87 22.2962 19.87C23.3656 19.87 24.198 19.7086 24.682 19.493C25.3574 19.1889 25.2046 18.8234 24.8976 18.8234C24.6235 18.8234 24.6535 18.9576 23.9296 18.9576C23.2757 18.9576 21.7308 18.5835 20.4144 17.7097C19.1066 16.8316 17.0049 15.6409 14.9831 15.6409C12.9457 15.6409 11.4993 16.3547 10.8768 16.6031C9.37909 17.1771 5.89387 19.1775 4.03204 19.1775C2.16736 19.1775 0 18.258 0 16.6703C0 15.0755 1.57341 15.1983 1.57341 14.2502C1.57341 14.0846 1.49631 13.9775 1.49631 13.7876C1.49631 13.602 1.68478 12.9823 2.32014 12.9823Z" fill="white"/>
<path d="M25.2395 26.5574C25.6435 26.5574 25.6021 27.0014 25.8634 27.2913C26.119 27.5982 26.2275 27.2185 26.5944 27.6168C26.9728 28.0123 26.7857 28.2222 27.0399 28.4507C27.2855 28.6863 27.6952 28.6577 27.7038 28.8647C27.7723 29.7171 27.3783 31.0721 27.3783 33.1481C27.3783 34.6115 27.6324 36.2863 28.1407 37.7598C28.3449 38.3737 27.9037 38.4837 27.6867 38.0568C26.1789 35.2426 24.8211 31.1192 24.8211 27.8938C24.8211 27.1285 24.9396 26.5574 25.2395 26.5574Z" fill="white"/>
<path d="M23.2947 29.6389C23.4831 29.6389 23.5816 29.7674 23.5816 29.9844C23.5816 30.2114 22.9191 32.3802 21.9283 33.6681C20.9474 34.9474 19.394 36.6335 18.8286 36.6335C18.5701 36.6335 18.5701 36.3295 18.523 36.2267C18.463 36.1196 18.2746 35.8782 18.6529 35.5698C19.037 35.26 19.087 35.0886 19.087 34.8873C19.087 34.6803 18.9185 34.402 18.9185 34.2192C18.9185 34.0465 19.0656 33.6395 19.3097 33.4924C19.5496 33.3582 21.0559 32.5987 21.8969 31.5792C22.7421 30.5584 22.9963 29.6389 23.2947 29.6389Z" fill="white"/>
<path d="M24.8127 41.1858C24.8127 40.9102 24.8212 40.6589 24.8212 40.4019C24.8212 36.8838 24.0574 34.6394 23.5819 34.6394C22.8695 34.6394 22.087 38.0946 21.7701 39.9193C20.6407 39.5709 19.8426 39.5123 19.2129 39.5123C17.4525 39.5123 17.1155 39.8879 17.1155 40.3462C17.1155 40.7902 17.501 41.4642 17.9408 41.8911C19.0087 42.9662 20.2481 42.9391 21.4146 42.9862C21.2275 45.1778 21.0191 47.9934 21.0191 48.98C21.0191 49.2998 21.0305 49.8124 21.0462 50.4292C19.8426 51.0617 17.8479 52.1596 17.1855 52.825C16.2131 53.7958 16.1061 54.3512 16.1061 55.0023C16.1061 57.3767 18.2149 57.2711 18.2149 58.9073C18.2149 59.5299 17.8008 60.1824 18.3234 60.1824C18.9473 60.1824 19.4628 58.9787 19.4628 58.252C19.4628 57.5295 18.836 56.3103 18.836 55.5607C18.836 54.784 19.0958 53.9444 20.1852 52.8522C20.4422 52.608 20.7521 52.3696 21.1076 52.1597C21.1847 54.2885 21.2832 56.7271 21.3246 57.3125C21.3946 58.2805 21.436 60.5278 21.9186 60.5278C22.4026 60.5278 23.2664 56.1731 23.6733 53.132C23.7704 52.4566 23.8818 51.6171 24.0003 50.6862C24.4571 50.4663 24.8983 50.2193 25.3367 49.9537C27.3884 48.7073 28.7633 47.2467 28.7633 45.5734C28.7633 43.5416 26.8829 42.2195 24.8127 41.1858ZM24.1773 49.0714C24.3658 47.4052 24.5528 45.5847 24.6742 43.8999C25.6808 44.3639 26.4446 44.9665 26.4446 46.2173C26.4446 47.715 24.8012 48.7459 24.1773 49.0714Z" fill="white"/>
</svg>
