<svg width="140" height="29" viewBox="0 0 140 29" fill="none" xmlns="http://www.w3.org/2000/svg">
<path fill-rule="evenodd" clip-rule="evenodd" d="M53.1596 5.18449C66.0157 3.34064 67.7908 21.3302 56.3632 23.2293C50.6494 24.1823 46.2878 20.5015 45.6013 15.7296C44.7761 10.0116 48.1184 5.90269 53.1527 5.18449H53.1596ZM66.2098 23.4365C66.4872 22.8564 67.0766 22.2349 67.451 21.5788C68.6923 19.4104 69.3857 16.9727 69.3857 14.3554C69.3857 -2.27376 46.8009 -4.7115 41.2189 8.38187C39.8736 11.5378 39.6587 15.6744 40.8444 19.0582C41.42 20.6949 42.1619 21.9794 43.0772 23.1257C46.5305 27.4349 50.8782 28.4639 56.7515 28.4639C60.9676 28.4639 65.1836 28.4639 69.4134 28.4639L69.4551 23.4296H66.2098V23.4365Z" fill="white"/>
<path fill-rule="evenodd" clip-rule="evenodd" d="M81.4235 14.5487C88.4132 13.5405 89.488 23.326 83.2958 24.3826C76.1258 25.6049 74.7805 15.5086 81.4235 14.5487ZM72.1317 19.7419C72.1317 31.9306 92.3657 32.338 92.3657 19.4518C92.3657 6.56564 72.1317 6.44825 72.1317 19.7419Z" fill="url(#paint0_linear_120_236)"/>
<path fill-rule="evenodd" clip-rule="evenodd" d="M103.162 19.5278C107.566 19.0099 108.349 24.348 104.209 24.935C99.6397 25.5911 98.8839 20.0319 103.162 19.5278ZM97.3584 10.5434C97.6358 11.6897 97.7883 13.5129 98.3361 14.4659C100.611 14.162 103.038 13.285 105.423 13.9479C107.76 14.5971 107.85 16.5445 107.933 19.2309C107.15 18.2364 106.338 17.3456 104.903 16.7586C101.096 15.2048 95.1256 16.5514 95.1533 22.4559C95.181 28.4017 101.512 29.7829 105.055 27.9045C105.867 27.4764 106.068 27.2347 106.616 26.7029C107.358 25.9778 107.198 25.9502 107.746 25.3287L107.919 25.156C107.683 26.3231 107.51 26.7927 107.503 28.1117H112.42V19.4518C112.42 14.3001 112.628 9.94257 105.09 9.618C103.516 9.54894 98.4817 9.90114 97.3653 10.5434H97.3584Z" fill="white"/>
<path fill-rule="evenodd" clip-rule="evenodd" d="M130.719 19.5278C135.053 18.9961 135.885 24.348 131.773 24.935C127.196 25.5911 126.427 20.0526 130.719 19.5278ZM124.957 10.4743C124.922 11.0544 125.643 13.9617 125.914 14.4521C127.703 14.3001 134.124 12.2698 135.157 15.8608C135.226 16.1094 135.517 18.9477 135.517 19.2378C134.027 17.1729 131.371 15.6053 127.585 16.358C124.575 16.9589 122.62 19.2378 122.765 22.7597C122.987 28.3465 129.076 29.9279 132.903 27.7388C133.687 27.2899 133.867 27.0068 134.408 26.475C134.984 25.9157 135.101 25.4322 135.594 24.9281C135.282 26.2057 135.081 26.5786 135.074 28.1048H139.99V19.59C139.99 17.0072 140.184 14.1413 138.86 12.2215C136.405 8.665 129.623 9.43845 124.964 10.4674L124.957 10.4743Z" fill="white"/>
<path fill-rule="evenodd" clip-rule="evenodd" d="M115.346 28.1117H120.186L120.2 0.916714L120.117 0.412591H115.401L115.346 0.916714V28.1117Z" fill="white"/>
<path fill-rule="evenodd" clip-rule="evenodd" d="M82.2487 5.72314C84.2042 5.72314 84.9392 6.81425 84.9531 8.44402C85.8476 8.63047 86.7421 8.81693 87.6366 9.00339C87.6366 5.4331 86.014 3.23706 82.2487 3.23706C78.4834 3.23706 76.8608 5.4331 76.8608 9.00339C77.7553 8.81693 78.6498 8.63047 79.5444 8.44402C79.5652 6.81425 80.2933 5.72314 82.2487 5.72314Z" fill="white"/>
<path fill-rule="evenodd" clip-rule="evenodd" d="M10.736 8.32662C10.5973 7.28385 10.944 5.86125 11.9911 5.66789C13.0728 5.46763 13.8911 6.66923 14.1199 7.53245C14.4666 8.82384 14.0506 9.81136 12.8648 10.0462C11.5265 10.3086 10.8816 9.46607 10.7291 8.33353L10.736 8.32662ZM14.8688 25.1008C15.0699 24.9143 15.1046 24.5345 15.1254 24.1961C11.5958 24.3895 11.048 21.565 10.8192 21.2335C10.5418 21.3509 10.2783 21.6133 9.89003 21.5581C9.35609 21.4752 9.58492 21.0609 9.31449 20.7916C8.84989 20.5291 8.37143 21.0816 8.37143 20.2046C8.6488 19.3206 7.76122 19.9974 7.44918 19.6038C7.04006 19.0927 7.83749 18.8096 8.14953 18.6853C9.1758 18.264 10.0703 18.2295 11.2561 18.3953C12.525 16.5997 12.74 16.6481 14.1615 16.4962C15.2433 16.4962 15.2433 16.4962 15.4651 16.1163C15.8951 15.702 16.0615 15.4534 16.6648 15.1012C16.8867 14.9769 17.4345 14.6316 17.7049 14.6523C17.8852 14.6661 18.0655 14.8388 18.1002 14.9907C18.1626 15.26 17.9823 15.3912 17.9199 15.5501C17.7396 15.6468 17.6494 15.6882 17.6494 15.9713C17.8644 16.2476 18.4261 16.2337 18.3151 16.7241C18.2111 17.1591 17.6356 17.2144 18.0031 17.6771C18.5578 18.3883 17.9823 18.2779 18.121 18.6646C18.1834 18.8234 18.2735 18.9961 18.3429 19.1687C18.4261 19.3828 18.4469 19.5623 18.5162 19.7695C18.752 19.5209 18.8976 19.2447 19.272 19.1411C20.1041 19.6176 19.1472 21.0471 18.8213 21.5098C18.5439 21.8965 18.3359 22.152 18.0516 22.5111C17.8713 22.7321 17.6148 23.3398 17.4275 23.6644C16.852 24.6588 15.9228 25.9295 15.0214 26.5855C14.5568 26.9239 14.2447 27.0896 14.2863 27.5938C14.4319 27.6904 14.5429 27.7457 14.7717 27.7664C16.5677 27.8216 17.906 28.0357 19.1334 27.0758C19.4107 26.8548 19.5009 26.6339 19.7436 26.4129C20.8808 25.377 21.8169 24.1823 22.6074 22.8357C23.814 20.7916 24.126 19.4933 24.3618 16.8898C24.3964 16.5445 24.4242 14.604 24.5282 14.4935C25.1384 13.8789 25.1731 15.9851 25.18 16.2545C25.2493 17.8911 25.1592 19.3552 24.7917 20.9159C24.334 22.8909 23.5366 24.6726 22.4271 26.254L21.595 27.3659C21.4771 27.5109 21.3523 27.573 21.4216 27.7733C21.4355 27.7802 21.4563 27.7733 21.4633 27.7871C21.4702 27.8078 21.4979 27.8009 21.5049 27.8009C22.1289 27.9114 22.9957 27.6559 23.5019 27.3244C25.0552 26.3162 26.4351 24.8245 27.4336 23.2707C29.6664 19.7971 29.9854 14.5833 28.0369 10.6055C26.865 8.21613 25.2909 6.40681 23.0235 5.01875C22.0665 4.43176 21.3731 4.10028 20.3191 3.72737C20.0209 3.62378 19.5771 3.54091 19.3414 3.37517C19.591 3.20253 19.9863 3.09894 19.9239 2.68459C19.8614 2.30478 19.4731 2.26334 19.383 1.80756C19.7852 1.46227 20.3746 1.40702 20.2844 0.84075C20.1943 0.246852 19.5009 0.329721 18.96 0.419497C17.6009 0.647388 16.644 1.12389 15.6524 1.89043C15.3889 2.0976 15.3681 2.04236 15.0144 1.91805C12.9966 1.23438 10.4101 1.262 8.4061 1.92496C8.17727 2.00092 7.93457 2.08379 7.71268 2.17357C7.3521 2.32549 7.3937 2.39455 7.04699 2.20809C5.29263 1.30344 2.65069 0.702634 0.688304 1.23438C-0.0883291 1.44155 -0.0883291 2.08379 0.112764 2.37383C0.438672 2.85033 1.08356 2.60863 1.46494 2.96083C1.52735 3.49257 0.903266 3.87239 1.18063 4.41104C1.38866 4.81158 2.24157 4.72871 2.49814 4.98422C2.72003 5.3157 2.15143 6.05462 3.05288 6.48278C3.58681 6.73829 4.2941 6.42753 4.81417 6.31704C4.80724 8.62357 4.76563 9.43845 5.86817 11.0958C6.02766 11.3375 6.3605 11.6552 6.55466 11.8486C6.79043 12.0765 7.06086 12.3044 7.34516 12.5046C8.20501 13.0916 9.09952 13.4162 9.25208 13.5267C8.13567 13.8374 6.3189 12.4287 5.51453 11.7795C5.3065 11.6138 5.20249 11.524 5.00139 11.3514C4.85578 11.227 4.62695 11.013 4.48133 10.9163C4.26637 11.0199 4.17622 11.1925 4.03754 11.4204C3.04594 12.9811 2.78244 15.0045 2.84485 16.8484C2.96967 20.7777 5.56307 24.279 9.20354 25.667C10.105 26.0054 11.3046 26.3231 12.3309 26.3576C12.8995 26.3783 13.4334 26.2817 13.9049 26.0607C14.2863 25.8742 14.7925 25.5013 14.8827 25.0939L14.8688 25.1008ZM8.9331 7.22169C8.55865 8.14016 6.99845 7.81559 7.31049 6.83497C7.6156 5.85435 9.31449 6.28251 8.9331 7.22169ZM15.167 6.28251C15.0838 5.9165 15.375 5.62646 15.7078 5.59883C16.1031 5.56431 16.4359 5.82673 16.4845 6.13058C16.6162 6.92475 15.3195 6.96618 15.167 6.28251Z" fill="white"/>
<defs>
<linearGradient id="paint0_linear_120_236" x1="52.536" y1="19.4805" x2="58.5451" y2="-15.5956" gradientUnits="userSpaceOnUse">
<stop stop-color="#F26921"/>
<stop offset="1" stop-color="#FFD824"/>
</linearGradient>
</defs>
</svg>
